<svg xmlns="http://www.w3.org/2000/svg" viewBox="0 0 351.93 348.47" preserveAspectRatio="none"><defs><style>.cls-1{fill:#FFEA61;}</style></defs><title>Asset 1</title><g id="Layer_2" data-name="Layer 2"><g id="Layer_2-2" data-name="Layer 2"><path class="cls-1" d="M5.63,143c1-.25,2-.49,3-.76,8.93-2.92,16.8-7.47,24.65-12.48S49,119.23,58,114.34c13.3-6,24.52-17.87,35.06-27.31C79.43,97,66,107.59,51.64,116.79S22.13,133.7,5.57,137.62c.21-5.31,1.34-10.26,4.92-12.82a267.82,267.82,0,0,0,27.45-15.93l4.39,5.64C52.46,103.23,65,95.85,77.09,87.73s23.85-17.07,32.41-31c-1.47,0-2-1.49-2.58-2.51l.16-.15-.16.15c-.53-.89-1.16-1.39-2.6-.07,1.44-1.32,2.07-.82,2.6.07C101.49,59.79,96.15,65,90.73,69.93S79.92,79.47,74.37,83.86A341.15,341.15,0,0,1,38.94,108.2,323.1,323.1,0,0,0,66,88c8.64-7.11,16.82-14.57,25.21-22.51S108,49.32,117,40.92,135.45,24,145.87,15.72c1.79-1.39,5.31-4.23,7.19-5.6A61.54,61.54,0,0,0,179.83,0c1.49,4.39,6.61,9.13,9.17,13.63,1.29,2.25,2,4.42,1.31,6.42s-2.59,3.89-6.64,5.56l4.12,5.9a27.75,27.75,0,0,1,13.68,2A29.44,29.44,0,0,1,212.19,41a23.53,23.53,0,0,1,3.55,5,22.18,22.18,0,0,1,1.95,5.46A15.33,15.33,0,0,1,216,62.37c-4.72,7.46-12.31,13.05-20.68,19.24s-17.41,12.83-24.41,21.52c-10.7,12-21.66,24.72-37,33.54C123.18,142.58,113.1,150,102.75,157s-21,13.6-32.62,17.82c-4,1.86-8.19,6.1-12.29,9.61s-8.06,6.31-11.37,5.34c-4-.35-6.29-3.44-8.35-7.21,11.8-7.45,23.12-15.52,34.5-23.29,14.61-8.72,29.13-17.69,44.34-26.14-15.81,7.17-30.11,16.41-44.34,26.14-11.87,7.08-23.82,14-36.12,20.21-1.69-3.29-3.5-6.7-6.21-9.15l-5.14,3.56c-12-2.72-17.21-14.4-19-24.08C6,147.71,5.75,145.37,5.63,143Z"/><path class="cls-1" d="M293.77,76.13l-3.81,1a100.46,100.46,0,0,0-16.49,7.62c-2.68,1.48-5.33,3.19-8,4.85s-5.28,3.49-7.92,5.38c-10.59,7.42-21.35,15.86-33.85,23.87-9.08,5.19-18.13,12-27.06,18.84L183.46,148c-4.35,3.33-8.63,6.65-12.83,9.68q15.66-9.87,31.2-21c10.39-7.38,20.5-15.1,30.47-22.29a314.76,314.76,0,0,1,30-19.6,135.47,135.47,0,0,1,30.52-12.91,32.29,32.29,0,0,1-2.7,8.19,16.7,16.7,0,0,1-5.31,6.34c-6.13,3.27-12.23,7-18.31,11s-12.14,8.29-18.24,12.81l-4.55-5.52a187.45,187.45,0,0,1-24.61,21.61c-2.25,1.66-4.49,3.29-6.78,4.88s-4.61,3.13-6.92,4.67c-4.62,3.12-9.3,6-13.94,8.93-18.58,11.68-36.93,22.81-52.19,39.1,1.82-.11,1.91,1.62,2.32,2.76l-.25.18.25-.18c.35,1,.95,1.54,3.17,0-2.22,1.56-2.82,1-3.17,0,17-13.11,34.4-25.23,52.11-37.65,8.83-6.22,17.83-12.52,26.79-18.95s17.68-12.73,26.39-18.8c-6.61,4.92-13.26,10-20,15.3l-10.25,7.93-10.37,7.9c-13.8,10.43-27.48,20.47-41,30.36-27,19.78-53.53,38.92-78.91,59l-8.54,6.89a59.23,59.23,0,0,0-8.46,2.64,56.5,56.5,0,0,0-7.68,3.64,67.81,67.81,0,0,0-13.13,9.77c-2.08-4.22-8.19-7.73-11.49-11.73-1.65-2-2.57-4.15-1.88-6.62s3-5.21,7.94-8.34l-4.76-5.4a45.5,45.5,0,0,1-8.73,2.31,41.61,41.61,0,0,1-8.28.66A29,29,0,0,1,7.4,232a16.88,16.88,0,0,1-4.64-4.05A12.54,12.54,0,0,1,.27,222.5c-.81-4.06.18-9,3.6-14.69,8.1-12.22,20.79-23,34.42-33.06s28.22-19.69,40.51-30.66c18.38-15.32,36.45-30,56.86-40.39,3.52-1.75,7-3.62,10.5-5.58s6.81-4,10.2-6.16c6.7-4.29,13.26-8.74,19.88-13.45,13.26-9.35,27.17-19.43,42.6-27.06,5.35-3.09,11.54-9,17.66-14s12.18-9.07,16.38-8.54c5.3-.34,7.46,2.83,9.17,6.81C244.37,46.17,228.54,58.42,213.18,70c-9.74,6.71-19.31,13.36-28.92,19.55-2.4,1.57-4.8,3-7.21,4.55s-4.86,2.92-7.29,4.36c-4.84,2.89-9.89,5.61-14.91,8.29,5.12-2.34,10.25-4.82,15.14-7.56,2.46-1.37,4.92-2.76,7.35-4.2s4.82-3,7.22-4.52c9.6-6.24,19-13.23,28.62-20.47C229,59.11,245.49,48.05,263.36,39c1.36,3.49,2.87,7.08,5.77,9.44l.82-.53c.5-.33,1.2-.78,2-1.25l4.76-2.9c7.45.89,11.87,4.62,14.47,9.35s3.41,10.49,3.4,15.67c-.12,1.11-.24,2.29-.37,3.53S293.94,74.82,293.77,76.13Z"/><path class="cls-1" d="M76.38,235.25l3.82-1.57c11.23-5.37,21.4-11.48,31.74-17.61s20.84-12.21,32.43-17.3c16.83-6.21,32.62-18,46.57-27.35-17.46,9.71-35.61,20-54.53,29.93S97.87,220.7,76.87,229.27c.84-6.1,3.08-12,8-15.65,12.94-7.29,25.35-14.05,37.27-20.66,1,1.53,2.87,4.53,3.83,6a139.37,139.37,0,0,1,23.19-15.66c7.94-4.39,16-8.21,23.81-12.15a182.32,182.32,0,0,0,22.51-13,89.37,89.37,0,0,0,19.35-17.91c-1.57,0-1.87-1.61-2.38-2.7l.2-.16-.2.16c-.43-1-1-1.48-2.75-.16,1.73-1.32,2.32-.79,2.75.16-6.61,5.57-13.32,10.81-20.23,15.64s-13.91,9.34-21.3,13.67c-14.72,8.68-30.49,16.67-47.42,25.29,12.87-7.13,25.15-14.13,36.84-21.31s22.63-14.45,33.25-22.24c21.28-15.58,41.29-33,61.23-51.64l6.74-6.42a50.08,50.08,0,0,0,24.83-15c2.47,4,8.6,7.27,12.18,11s4.53,8.06-3.59,13.85l5.15,5c10.11-3.93,21.05-3.22,28.51,1a16.88,16.88,0,0,1,7.84,8.87c1.29,3.75,1.1,8.3-1.25,13.36-5.61,11.1-15.54,21-26.55,30.58s-23.09,18.89-33.29,29.48a295.21,295.21,0,0,1-24,21.1,134.81,134.81,0,0,1-27.32,16.59c-27.22,11.59-51.81,27.9-77.41,36.3-4.46,1.88-9.34,6.26-13.78,10s-8.53,6.82-12,6c-4.15,0-6.64-2.95-8.85-6.64,3.12-2.29,6.38-4.47,9.55-6.7s6.47-4.38,9.79-6.5c6.56-4.28,13.3-8.38,20.15-12.32C168.89,238,187,229.75,206,221.78a310.5,310.5,0,0,0-54.54,24.92c-7.07,3.57-14.06,7.19-20.9,10.95-3.47,1.85-6.82,3.78-10.24,5.68l-5,2.91-2.54,1.46-2.49,1.49c-1.81-3.25-3.7-6.63-6.64-8.85l-2.18,1.71c-1.21.94-2.67,2.07-3.61,2.86a20.65,20.65,0,0,1-15.08-7.41,29.67,29.67,0,0,1-6.24-14.67C76.42,240.54,76.32,238,76.38,235.25Z"/><path class="cls-1" d="M326.5,223.27c-1.26.23-2.52.45-3.76.69-22.38,5.53-41.45,17.44-65.21,25.7-17.13,4.83-34,15.59-49.46,23.61,38.2-16.06,76.16-37.16,117.14-44.36-1.61,5.62-4.31,10.84-9.26,13.4-12.7,4.7-25,9.76-37.05,15.1-.83-1.62-2.47-4.77-3.29-6.35-30.67,22-68.25,25.24-97.26,50.42,1.62.25,1.59,1.91,1.88,3.07l-.23.13.23-.13c.25,1,.75,1.65,2.81.58-2.06,1.07-2.56.44-2.81-.58,31.82-18.47,63.12-32.74,97.3-46.53-52.13,23.23-99.29,51.63-151.13,78.51l-8.84,4.58a60.91,60.91,0,0,0-29.84,7.36c-1.94-9.14-19.07-20.53.28-26.51-.83-1.59-2.49-4.79-3.31-6.39C62.86,316.75,44.62,297.82,59,282.26c16.58-16.71,46.42-24.07,69.08-39.87,16.86-10.77,33.71-21.53,53-27.5,26.8-7.81,52.5-23.17,80.12-29.38,9.68-3,22.67-15.8,29.58-13.3,4.36.65,6.25,4,7.73,8-14.82,7-29.4,14.31-44.09,21-18.51,7.32-37.12,14.44-56.33,20.37,19.45-4.52,38-12,56.33-20.37,15-5.95,30-12,45.23-17.74,1.16,3.53,2.42,7.19,4.93,9.9l6.63-3.44c13,3.4,16.57,15.74,16.3,26C327.28,218.23,327,220.71,326.5,223.27Z"/><path class="cls-1" d="M252,182.7c.48.16,1,.32,1.44.46a17.86,17.86,0,0,0,10.28-1.32c3.09-1.19,6.1-2.67,10-3.26,6.17,0,9.71-4.92,13.55-8.07-5.63,2.46-10.76,5.7-16.58,7.72a29.29,29.29,0,0,1-20.05.15c-1.22-4.23-1.9-7.76-.66-8.51a40.61,40.61,0,0,0,10.73-2.59l4,5.91c2.67-5.09,7.86-6.11,12.89-7.78s9.81-3.93,10.59-10.7a9.81,9.81,0,0,1-2.46-2.61l0-.06,0,.06c-.64-.81-1.2-1.36-1.66-.95.46-.41,1,.14,1.66.95-6.16,7.91-14.72,12.44-24.67,15,7.18-2.86,13.13-7.48,18.52-12.66,2.7-2.6,5.25-5.36,7.79-8.15a108.62,108.62,0,0,1,11.92-11.6l2.13-1.7,2.34-1.74a48.71,48.71,0,0,0,10.48,0,33.61,33.61,0,0,0,8.25-2.12c1.18,4.37,4.77,10.22,6.64,15.05a14.46,14.46,0,0,1,1.4,6,2.43,2.43,0,0,1-.84,1.71,4,4,0,0,1-2.32.66l3.43,6.33a21.41,21.41,0,0,1,7.47,6.85,55.64,55.64,0,0,1,5.89,10.73c.86,1.87,1.64,3.77,2.28,5.63.33.92.6,1.85.89,2.74l.86,2.56c1.08,3.29,2,6,2.58,7.73s.92,2.55,1,2.94c0,.22.24.15.07.27l-.09,0-.18.09-.19.07-.28.14a12.84,12.84,0,0,0-3.34,2.22c-.34.31-.67.62-1,1s-.68.77-1.06,1.25a19.6,19.6,0,0,0-2.06,3.2c-4.07,6.32-8.54,12.65-16.52,14.49-5.6,1.08-10.25,3.53-15.11,5.67s-9.88,4-15.91,3.59c-2,.2-3.52,2.27-5.17,3.8s-3.37,2.57-5.49.7c-2.41-1.57-4.38-4.86-6.39-8.64,5.11-2.26,9.9-5,14.89-7.47a188.32,188.32,0,0,1,21.17-5.77c-8.37.31-14.93,2.73-21.17,5.77A149.55,149.55,0,0,1,277.44,223a78,78,0,0,0-5.57-9.55l-2.06,1.2c-7.25-6.22-12.62-17.66-15.91-26.16Z"/><path class="cls-1" d="M123.4,171.24c.58,0,1.16,0,1.72-.06,9.59-1.45,14.3-8.23,23.31-11.71,7-1.64,11.06-7.87,15.61-12.19-13.07,7.81-23.7,19.4-42.62,19.8-1.81-4.11-2.83-7.76-1.36-9.11A85.74,85.74,0,0,0,133,151l4.86,5.24c3.07-6.53,9.33-9.3,15.28-12.43s11.59-6.63,13.32-14.52c-1-.36-1.82-1.62-2.56-2.53l.07-.07-.07.07c-.64-.8-1.22-1.33-1.82-.75.6-.58,1.18-.05,1.82.75-8.29,10.37-18.46,17.57-30.45,23.94,17.24-11.41,29.09-27.51,44-42.08l2.55-2.48c6.31,1.36,10.13.14,12.67-2.36,5.68,7,20.89,17.32,13.22,19.82l5,5.14c11.45,1.35,31.16,17.3,31,27.59-.86,10.95-13.79,13.51-18.57,23.11-4.06,6.4-8.16,12.79-16,15.24-11.06,3-17.88,11.87-30.18,13.42-3.91,1.16-5,9.48-10,6.74-2.72-1-5.34-3.82-8.08-7.11,4.86-3.58,9.39-7.48,14.26-10.92a127.84,127.84,0,0,1,21.28-9.16c-8.57,1.29-15.19,4.85-21.28,9.16-5.44,2.8-10.79,5.7-16.44,8.25a71.21,71.21,0,0,0-7.42-8.21l-2,1.83c-8.74-4.2-16.53-14.15-21.28-22C125.38,175,124.37,173.15,123.4,171.24Z"/><path class="cls-1" d="M131.91,170.28c.69-.23,1.39-.45,2.05-.68,11.46-5,17.61-14.65,28.78-21.36,8.58-3.93,14.14-12.35,20.31-18.54-8.46,6.17-16.19,13.48-24.55,20.11S141.11,162.37,129.8,166c-1.9-4.32-2.84-8.4-1-10.56,5.79-4.09,11.2-8.35,16.33-12.77l5.27,4.83c4.42-8.81,12.37-14,20-19.25s15-10.73,18.73-20.53c-1.15-.22-1.88-1.55-2.59-2.49l.09-.1-.09.1c-.62-.82-1.22-1.34-2.07-.51.85-.83,1.45-.31,2.07.51-12.23,14.25-25.6,25.47-40.86,36.93,11.06-9.6,20.94-19.86,30.82-30.3s19.81-21,30.93-31l3.8-3.4c7.4.68,12.36-1.29,16.2-4.56,4.92,7.63,20.36,18.09,10.57,21.78l4.72,5.43c13.35.38,32.13,17.47,29.8,29-1.61,6.12-6.14,10.11-11.16,14s-10.53,7.78-13.92,13.44c-5.5,7.66-10.77,15.36-19.81,19.38-6.4,2.61-11.67,6.81-17.08,10.88s-10.91,8.1-17.88,10.48c-4.49,2.3-5.81,12-11.42,10.24-3-.41-6-2.85-9.07-5.84,5.58-5.5,10.87-11.2,16.64-16.35,7.84-5.6,15.91-10.93,25-15.11-9.92,3.09-17.81,8.69-25,15.11-6.39,4.56-12.59,9.34-19.09,13.91a54.34,54.34,0,0,0-8.33-7.28s-1.57,1.84-2.36,2.75c-10-2.16-18.86-11.17-24.08-18.92C134.05,174.11,133,172.23,131.91,170.28Z"/><path class="cls-1" d="M78.16,136.94c.69-.1,1.38-.19,2-.31,11.67-3,18.62-11.38,30-16.49,8.68-2.77,14.73-10.39,21.05-15.88-17.16,10.49-32.08,25.1-54.65,28.17-1.32-4.47-1.81-8.54.22-10.3a151.58,151.58,0,0,0,16.84-9.77l4.69,5.4c10-15.83,32.09-15.92,39.74-34.47-1.11-.3-1.79-1.66-2.45-2.63l.09-.09-.09.09c-.58-.85-1.15-1.4-2-.66.84-.74,1.41-.19,2,.66C123.48,93.55,109.88,103.05,94.28,112,117.16,96.57,134.79,76.64,156,58.27l3.62-3.13c7.15.94,11.94-.83,15.55-4,5,7.58,20.4,18,10.82,21.59l4.71,5.44c13.13.53,32.35,17.22,29.84,28.93-3.41,12.48-19,16.45-26.55,27.78-6,7.63-12.09,15.26-21.67,18.8-13.48,4.54-23.14,15.3-37.79,18.48-4.79,1.77-7.58,11.33-12.92,8.82-3-.83-5.56-3.68-8.16-7.08,6.36-4.67,12.41-9.65,18.78-14.14A193.91,193.91,0,0,1,158.87,147c-10.25,2.36-18.72,7.16-26.67,12.76-6.92,3.83-13.74,7.77-20.85,11.38a54.07,54.07,0,0,0-7.18-8.41l-2.71,2.35c-9.51-3.67-16.87-14-21-22.34C79.76,141,78.93,139,78.16,136.94Z"/><path class="cls-1" d="M208.07,195.28c.45.18.9.36,1.34.52a15.66,15.66,0,0,0,9.47-.59c2.84-.92,5.6-2.12,9.23-2.33,5.7.6,9-3.78,12.56-6.38-5.25,1.73-10,4.33-15.37,5.78a27.34,27.34,0,0,1-18.6-1.3c-1.23-4.17-1.94-7.68-.8-8.34a37.5,37.5,0,0,0,10-1.79c1,1.53,2.86,4.54,3.81,6.05,2.42-4.74,7.3-5.25,12-6.34s9.19-2.68,10.11-9.07a10.62,10.62,0,0,1-2.24-2.8l0-.05,0,.05c-.57-.85-1.09-1.45-1.53-1.11.44-.34,1,.26,1.53,1.11-6,6.83-14,10.29-23.34,12,6.7-2.22,12.29-6.11,17.48-10.49s10-9.31,15.3-13.87l1.82-1.56c5.33,2.49,8.4,2.19,10.2.53,5.6,7.07,19.73,18.55,13.37,19.47l4.81,5.35c5,1.54,12.23,6.52,18.3,12.25s10.93,12.26,11.07,17c-.12,5-3.2,7.7-6.72,10.12s-7.51,4.52-9.72,8.57c-3.72,5.25-7.7,10.48-14.85,11.15-5,.28-9.16,2-13.44,3.49s-8.72,2.69-14.13,1.76c-3.46,0-5.3,7.34-9.3,3.4-2.22-1.72-4.13-5-6.1-8.83,4.45-1.81,8.65-4.06,13.05-5.9a117.92,117.92,0,0,1,19-3.12,37.59,37.59,0,0,0-19,3.12A146.44,146.44,0,0,1,232.77,236a89.08,89.08,0,0,0-5.42-9.64l-1.81,1c-6.8-6.51-12.19-17.93-15.5-26.4C209.44,199.24,208.76,197.27,208.07,195.28Z"/></g></g></svg>