<svg xmlns="http://www.w3.org/2000/svg" viewBox="0 0 311.28 320.26"><defs><style>.cls-1{fill:#FFEA61;}</style></defs><title>Asset 2</title><g id="Layer_2" data-name="Layer 2"><g id="Layer_4" data-name="Layer 4"><path class="cls-1" d="M19.22,127.64q89.85-38.82,181.49-73.25,26-9.75,52.11-19.14L233.86,0c-61,39.93-122,79.87-182,121.37q-25.69,17.79-51.09,36c-2.66,1.91,15.91,36.38,19,35.23C84.33,168.25,147,139.1,209,108.89Q235.4,96,261.74,83l-19-35.22Q163.7,112.67,82.56,175,59.39,192.84,36,210.43c-2.17,1.63,6.7,16.68,7.72,18.55.84,1.57,9.1,17.75,11.23,16.67,67.09-34.14,132.14-72.34,197.69-109.3l56.39-31.8-19-35.23L99,215.41l-53.69,41C43.18,258.13,52,273.14,53.07,275c.93,1.72,8.77,17.68,11.24,16.67,62.92-25.81,122.28-59.32,181.87-91.87l52.46-28.66-18.95-35.22c-44.73,43.25-94,81.33-144.19,118q-21.36,15.63-42.87,31c-2.93,2.11,16.49,36.4,19,35.22L311,225,292,189.81a560.2,560.2,0,0,0-77.31,62.44c-.84.81,1.5,5.75,1.53,5.82a130.14,130.14,0,0,0,6.19,12.74c.69,1.26,10.26,17.61,11.24,16.66A559.31,559.31,0,0,1,311,225c2.82-1.89-16.36-36.46-18.95-35.23L92.63,285l19,35.22c50.43-36.34,101-72.75,148-113.43q20-17.28,39-35.64c.85-.82-1.5-5.75-1.53-5.83a129.89,129.89,0,0,0-6.18-12.73c-.83-1.51-9.23-17.76-11.24-16.66-60.3,32.93-120.07,67.27-182,97.11-17.22,8.3-34.66,16.16-52.35,23.41l19,35.23L255.38,145.6l53.69-41c2.17-1.67-6.69-16.68-7.72-18.56-.81-1.5-9.28-17.77-11.24-16.67-65.89,37.16-131.5,74.87-197.82,111.26C73.68,190.8,55,200.8,36,210.43l19,35.22q81.7-61.59,161.39-125.77Q239.15,101.55,261.74,83c2.19-1.8-6.65-16.6-7.71-18.56-.87-1.58-9.06-17.74-11.24-16.66-61.9,30.51-123.85,61-187.48,87.83Q28.23,147,.78,157.38l19,35.23c59.26-42.5,119.89-83,180.81-123.09q26.11-17.17,52.28-34.27c2.46-1.61-15.66-36.41-19-35.22Q141.77,33.17,51.37,70.74,25.74,81.41.27,92.42C-1.63,93.24,7.18,109.51,8,111c.92,1.68,8.85,17.7,11.24,16.66Z"/></g></g></svg>