<svg xmlns="http://www.w3.org/2000/svg" viewBox="0 0 290.12 48.14"><defs><style>.cls-1{fill:#ffdf61;}</style></defs><title>chooser-splotch</title><g id="Layer_2" data-name="Layer 2"><g id="Layer_5" data-name="Layer 5"><path class="cls-1" d="M281.08,42.52l-3.71-.64c-22.79-3.21-45.65-2.82-71-5.18-17.73-2.2-38-1.75-55.82-2.15,42.07,2.6,86.34,3,126.66,10.09a31.53,31.53,0,0,1-14.75,3.49Q242,46.42,221.9,45.4c0-.91.06-2.68.08-3.57-38.13,1.85-73.51-6.14-111.68-2.49,1.35.51.53,1.22.23,1.8h0c-.26.51-.12.9,2.25,1-2.37-.06-2.51-.45-2.25-1,37.48,0,72.48,1.6,109.84,4.18-58-3-114.07-2.47-173.6-3.79L36.62,41.3A117.9,117.9,0,0,0,6.25,37c2.63-4.44-7.32-13.66,13-11.41l.08-3.6C-.93,17.06-8.27,4.29,12.12,1.14c22.92-3.09,53.3,1.19,81.26,0C113.7.71,134,.26,154.29,2.51c27.86,3.32,58.34,3.1,86.17,7.32,10.14,1.13,28-1.18,33,1.63,3.62,1.38,3.72,3.3,3.12,5.42-16.68-.69-33.32-1.16-49.76-1.92-20.16-1.45-40.32-3-60.44-5.26C186,12.61,206.26,14,226.8,15c16.4,1.19,32.8,2.3,49.2,3.63-.64,1.83-1.26,3.73-.3,5.53l7.61.17c10.06,4.72,7.37,11,2.2,15.35C284.2,40.53,282.72,41.52,281.08,42.52Z"/></g></g></svg>