<svg xmlns="http://www.w3.org/2000/svg" viewBox="0 0 290.44 42.23"><defs><style>.cls-1{fill:#FFEA61;}</style></defs><title>chooser-splotch-2</title><g id="Layer_2" data-name="Layer 2"><g id="Layer_5" data-name="Layer 5"><path class="cls-1" d="M8.48,6.58,12.23,7c23,2,45.86.52,71.34,1.88,17.84,1.5,38.17.35,56,.26C97.32,7.73,53,9.22,12.23,4.25A31.47,31.47,0,0,1,26.84,0C40.61.44,54.19.71,67.66.84c0,.91,0,2.68.07,3.58,38.18-3.47,73.88,3.41,112.06-1-1.36-.48-.55-1.21-.27-1.79h0c.26-.51.1-.91-2.28-.91,2.38,0,2.54.4,2.28.91-37.59.82-72.74.27-110.33-.74,58.33.56,114.54-1.4,174.32-.55L253.7.45a121.55,121.55,0,0,0,30.5,4.19c-2.63,4.44,7.33,13.66-13,11.42,0,.9-.05,2.7-.07,3.6,20.24,4.93,27.49,17.7,7.18,20.86-22.82,3.11-53.1-.94-80.93.73-20.23.78-40.44,1.71-60.67,0-27.84-2.51-58.17-1.17-86.07-4.09-10.15-.68-27.79,2.52-32.93,0-3.67-1.17-3.88-3.08-3.38-5.24,16.66-.19,33.26-.53,49.69-.47,20.16.59,40.32,1.39,60.45,3-19.7-2.3-39.93-2.94-60.45-3L14.83,30.19c.55-1.85,1.07-3.79,0-5.53l-7.61.24c-10.29-4.18-8-10.55-3-15.21C5.46,8.73,6.89,7.66,8.48,6.58Z"/></g></g></svg>