<svg xmlns="http://www.w3.org/2000/svg" viewBox="0 0 171.49 137.67"><defs><style>.cls-1{fill:none;stroke:#FFEA61;stroke-miterlimit:10;stroke-width:6px;}</style></defs><title>circle</title><g id="Layer_2" data-name="Layer 2"><g id="Layer_1-2" data-name="Layer 1"><path class="cls-1" d="M121.5,19.09c-17.14-10-38.68-5.85-58-1.43C51.52,20.4,39.31,23.24,28.91,29.74A56.09,56.09,0,0,0,3.09,73.32a56,56,0,0,0,20.63,46.26c10.84,8.66,24.64,13,38.43,14.46,22.35,2.45,45.59-2.18,64.73-14s33.91-30.85,39.5-52.62c3.08-12,3.26-25.29-2.68-36.14C160.24,25,154.89,19.85,149,15.71A70.86,70.86,0,0,0,44.26,43.64" style="fill: none"/></g></g></svg>
