<svg xmlns="http://www.w3.org/2000/svg" viewBox="0 0 471.06 929.74"><defs><style>.cls-1{fill:none;stroke:currentColor;stroke-miterlimit:10; stroke-width: 2px}</style></defs><title>export-selection</title><g id="Layer_2" data-name="Layer 2"><g id="Layer_2-2" data-name="Layer 2"><path class="cls-1" d="M381.42,580.52s29-4,29,10c0,0-1,6-9,8,0,0-6-2-5,32v185s2,24,19,38c0,0,34,38,35,65,0,0,0,14-59,10l-71-5s-47,4-27-33c0,0,7.06-10.58,26.13-26.78,1-.82,2-1.66,3-2.5,1.65-1.36,3.37-2.75,5.18-4.18q5.78-4.56,12.71-9.54s18-15,18-34v-182s1-37-6-34C352.42,597.52,331.42,581.52,381.42,580.52Z"/><path class="cls-1" d="M316.83,867.23c8.4,9.71,57.59,8.29,57.59,8.29,56,1,54.47-4.91,54.47-4.91-25.47-8.09-29.47-35.09-42.47-7.09-.72,1.56,1.16-.57-.37-.64-6.83-.33-11.63-.36-11.63-.36C319.42,862.52,316.83,867.23,316.83,867.23Z"/><path class="cls-1" d="M363.42,850.52c12,8,13-8,13-8,0-10-10-7-10-7C357.42,843.52,363.42,850.52,363.42,850.52Z"/><path class="cls-1" d="M379.42,752.52c-2,8,4,10,4,10,6,0,8-4,8-4,3-7-5-10-5-10C382.42,748.52,379.42,752.52,379.42,752.52Z"/><path class="cls-1" d="M385.42,624.52c6-3,5-13,5-13-2-6-7-2-7-2C376.42,623.52,385.42,624.52,385.42,624.52Z"/><path class="cls-1" d="M374.42,788.52c-7-4-16.24-.46-16.24-.46"/><path class="cls-1" d="M374.42,758.52c-7-4-16.24-.46-16.24-.46"/><path class="cls-1" d="M374.42,728.52c-7-4-16.24-.46-16.24-.46"/><path class="cls-1" d="M374.42,702.52c-7-4-16.24-.46-16.24-.46"/><path class="cls-1" d="M374.42,678.52c-7-4-16.24-.46-16.24-.46"/><path class="cls-1" d="M374.42,648.52c-7-4-16.24-.46-16.24-.46"/><path class="cls-1" d="M374.42,618.52c-7-4-16.24-.46-16.24-.46"/><path class="cls-1" d="M390.42,553.52c2-29-30-47-30-47-40-14-40-56-40-56"/><path class="cls-1" d="M394.42,493.52c-4,9,7,22,7,22,18,6,29-14,29-14,8-33-19-30-19-30A30.53,30.53,0,0,0,394.42,493.52Z"/><path class="cls-1" d="M352.42,565.52c11,3,15-6,15-6,5-18-12-11-12-11S341.42,562.52,352.42,565.52Z"/><path class="cls-1" d="M414.42,382.52c-2,14-23,33-23,33-38,26-19,59-19,59"/><path class="cls-1" d="M431.42,423.52c5,9,16,2,16,2,5-12-8-15-8-15C427.42,411.52,431.42,423.52,431.42,423.52Z"/><path class="cls-1" d="M412.42,371.52l-4,7s11,6,13,0v-7s69-33,10-80c0,0-19-7-41,12C390.42,303.52,361.42,337.52,412.42,371.52Z"/><path class="cls-1" d="M314.42,435.52v8s9,1,13-4l-6-4s40-25,20-70c0,0-23-22-48-1C293.42,364.52,256.42,396.52,314.42,435.52Z"/><path class="cls-1" d="M192.42,401.52c8,33,38,62,38,62,24,23,58,35,58,35,33,16,43,32,43,32"/><path class="cls-1" d="M181.42,387.52v11s15,5,14-6l-3-5s29-35,11-60c0,0-17-31-52-1C151.42,326.52,123.42,365.52,181.42,387.52Z"/><path class="cls-1" d="M288.42,548.52c2,10,9,5,9,5,6-9-4-12-4-12C286.42,544.52,288.42,548.52,288.42,548.52Z"/><path class="cls-1" d="M234.42,421.52c8,2,13-6,13-6s8-14,0-17-13,7-13,7S226.42,419.52,234.42,421.52Z"/><path class="cls-1" d="M305.42,482.52s-12-38-51-61"/><path class="cls-1" d="M232.42,391.52s-19-17-19-27c0,0,51-47,3-80,0,0-30-18-44,19v9"/><line class="cls-1" x1="209.42" y1="365.52" x2="213.42" y2="364.52"/><path class="cls-1" d="M129.42,401.52s-18,5-11,30,26,12,26,12,11-14,7-24C151.42,419.52,147.42,400.52,129.42,401.52Z"/><path class="cls-1" d="M288.42,343.52s-42-25-14-114c0,0,11,3,14-4l-7-6s35-41-6-83c0,0-39-12-35,36,0,0,7,37,34,47v9"/><path class="cls-1" d="M408.42,114.52c9,36-26,77-26,77-65,82-34,122-34,122"/><path class="cls-1" d="M408.42,86.52l-10,15s20,10,23,0l-5-15s44-34,26-67c0,0-20-40-57-4C385.42,15.52,357.42,53.52,408.42,86.52Z"/><path class="cls-1" d="M416.42,206.52c10,23,35,19,35,19,22-12,19-36,19-36-4-38-39-29-39-29C401.42,179.52,416.42,206.52,416.42,206.52Z"/><path class="cls-1" d="M383.42,234.52c-6,11,2,14,2,14a11.83,11.83,0,0,0,13-5c6-12-7-14-7-14C383.42,232.52,383.42,234.52,383.42,234.52Z"/><path class="cls-1" d="M91.42,302.52c11,5,23-6,23-6,6-25-18-16-18-16C88.42,284.52,80.42,297.52,91.42,302.52Z"/><path class="cls-1" d="M5.42,262.52c22,28,61,9,61,9,36-19,20-48,20-48-23-27-54-10-54-10C-16.58,235.52,5.42,262.52,5.42,262.52Z"/></g></g></svg>