<?xml version="1.0" encoding="utf-8"?>
<!-- Generator: Adobe Illustrator 25.1.0, SVG Export Plug-In . SVG Version: 6.00 Build 0)  -->
<svg version="1.1" id="Layer_1" xmlns="http://www.w3.org/2000/svg" xmlns:xlink="http://www.w3.org/1999/xlink" x="0px" y="0px"
	 viewBox="0 0 48 48" style="enable-background:new 0 0 48 48;" xml:space="preserve">
<style type="text/css">
	.st0{fill:none;}
	.st1{fill:#E077D6;}
</style>
<rect class="st0" width="48" height="48"/>
<path class="st1" d="M20.4,16.1c-0.8-2.5-1.5-5.1-0.9-7.7c0.6-2.5,2.9-4.9,5.8-5c0.5,0,1,0.1,1.4,0.3c0.5,0.2,0.9,0.7,1.2,1.1
	c1.3,1.8,1.5,4.2,1.1,6.3c-0.4,2.1-1.4,4.2-2.5,6.1c-1.2,2.1-2.5,4.1-4,6.1c3.2-4.2,8.2-7.1,13.5-8.9c1.6-0.5,3.3-0.9,4.9-0.5
	c1.6,0.4,3,2,2.4,3.4c-0.3,0.7-1,1.3-1.7,1.7c-5.7,3.7-12.8,5.4-19.8,4.8c1.6-0.3,3.1,0.5,4.5,1.4c5.2,3.2,10,7.7,11.1,13.4
	c0,0.2,0.1,0.5-0.1,0.7c-0.2,0.2-0.5,0.4-0.8,0.4c-1.4,0.4-2.9,0.9-4.4,0.5c-1.1-0.3-2-1-2.7-1.8c-3.6-4.1-3.4-10-6.1-14.6
	c0.5,1.5,0.5,3.1,0.6,4.6c0.1,3.8,0.2,7.7-0.7,11.4c-0.3,1-0.7,2.2-1.8,2.7c-0.9,0.4-2.1,0.1-2.9-0.5c-0.8-0.6-1.2-1.6-1.5-2.5
	c-0.5-1.6-0.5-3.3-0.6-5c-0.1-1.4-0.1-2.9,0.4-4.2c0.9-2.4,3.5-3.9,5-6c-2.4,1.4-5.3,1.8-8.1,2c-1.4,0.1-2.9,0.1-4.3-0.3
	c-1.4-0.4-2.7-1.3-3.2-2.5c-0.5-1.2,0-2.8,1.2-3.4c0.5-0.2,1.1-0.3,1.6-0.4c2.6-0.3,5.4,0,7.9,0.7c0.6,0.2,1.3,0.4,1.9,0.7
	c0.5,0.2,1,0.5,1.6,0.7c0.3,0.1,0.8,0.2,1.2,0c0.4-0.3,0.2-0.9,0.1-1.2C21.4,19,20.9,17.6,20.4,16.1z"/>
</svg>
