<svg xmlns="http://www.w3.org/2000/svg" viewBox="0 0 22.93 12.94"><defs><style>.cls-1{fill:#FFEA61;}</style></defs><title>play-splotch-bg</title><g id="Layer_2" data-name="Layer 2"><g id="Layer_5" data-name="Layer 5"><path class="cls-1" d="M22.91,8.05h-.36c-2.06.17-3.7,1.17-5.89,1.28-1.54-.09-3.09.51-4.55.7a27.36,27.36,0,0,0,5.29-.62,30.27,30.27,0,0,1,5.53-.63c0,.73-.17,1.39-.63,1.61l-3.57.89c-.1-.25-.27-.75-.36-1a8.4,8.4,0,0,1-4.72,1A11.94,11.94,0,0,0,8.82,12c.12.14,0,.36,0,.54h0c0,.15,0,.27.2.27-.21,0-.22-.12-.2-.27,3.34-.31,6.4-.58,9.74-1.18A59.65,59.65,0,0,1,11,12.76a29.94,29.94,0,0,1-3.9.17c-1.25,0-2.29-.09-3.12-.13H3.42c-.48-.82-1-1.06-1.34-1C2,10.44,1,7.84,2.31,8.23L2.23,7.16a7.59,7.59,0,0,1-2-3A3.91,3.91,0,0,1,0,2.44,2,2,0,0,1,.94,1.05,6.22,6.22,0,0,1,4.76.47,8.82,8.82,0,0,0,7.81.61,5.79,5.79,0,0,1,11,.46c1.62.6,3.19-.1,5.09.29C16.8.76,17.4-.42,18,.16A3.12,3.12,0,0,1,19,1.49a20.18,20.18,0,0,1-3,1.08A10.87,10.87,0,0,1,12,2.41a6.28,6.28,0,0,0,3.9.16A31.56,31.56,0,0,0,19.16,2a8.16,8.16,0,0,0,.76,1.47l.47-.25a6.32,6.32,0,0,1,2.4,3.92C22.83,7.39,22.88,7.72,22.91,8.05Z"/></g></g></svg>