<svg xmlns="http://www.w3.org/2000/svg" viewBox="0 0 30.81 5.91"><defs><style>.cls-1{fill:#f36093;}</style></defs><title>play-splotch-fg</title><g id="Layer_2" data-name="Layer 2"><g id="Layer_5" data-name="Layer 5"><path class="cls-1" d="M8.33,1.51Z" transform="translate(0 -0.42)"/><path class="cls-1" d="M19,1.46h0l0-.05Z" transform="translate(0 -0.42)"/><path class="cls-1" d="M20.66,1.7h0S20.67,1.68,20.66,1.7Z" transform="translate(0 -0.42)"/><path class="cls-1" d="M15.09,1.35h0Z" transform="translate(0 -0.42)"/><path class="cls-1" d="M5.25,2.42h0Z" transform="translate(0 -0.42)"/><path class="cls-1" d="M5.27,2.37s0,0,0,0a.15.15,0,0,0,.13,0S5.29,2.39,5.27,2.37Z" transform="translate(0 -0.42)"/><path class="cls-1" d="M.22,5.28v0Z" transform="translate(0 -0.42)"/><path class="cls-1" d="M15.16,2.87h0Z" transform="translate(0 -0.42)"/><path class="cls-1" d="M1,4.76l0,0Z" transform="translate(0 -0.42)"/><path class="cls-1" d="M19,1.41h0Z" transform="translate(0 -0.42)"/><path class="cls-1" d="M22.19,1.8s0,0,0,0h0Z" transform="translate(0 -0.42)"/><path class="cls-1" d="M29.68.72v0S29.68.73,29.68.72Z" transform="translate(0 -0.42)"/><path class="cls-1" d="M24.29,2a0,0,0,0,0,0,0,.6.6,0,0,0-.25,0V2Z" transform="translate(0 -0.42)"/><path class="cls-1" d="M26.9,3l-.28,0a7.25,7.25,0,0,0,1.7-.69l0,0c.1,0,0-.25,1.12-.5h0s0,0,.09-.05l-.19,0a1.5,1.5,0,0,1,.25-.26.07.07,0,0,1,.07,0l.29-.21h.14c.07-.1-.07-.2.23-.31-.16,0,.08-.14,0-.17a.33.33,0,0,0,.1,0,1.72,1.72,0,0,0,.39-.47,3,3,0,0,1-.37.14,2,2,0,0,1-.53.12c.21-.11,0,0,0-.05v0c-.13.07-.18,0-.24,0h0s0,0,0,0,0,0,0,0h0a.82.82,0,0,1-.17.11l0,0c0,.16-.69.22-.81.28s-.26.17-.43.21-.16,0-.31,0,.07.05,0,.08H27.7c.1,0,0-.06,0-.07s-.46.07-.46.2c-.24,0-.26,0-.36,0s.11,0,.12,0,0,0,0,0c-.12.11-.75,0-.74.16v0c0,.11.07.18,0,.26l-.08,0L26.08,2C26,2,26,2,26,2a1.46,1.46,0,0,1-.57.07l.24.24c-.17,0-.5-.15-.52,0l-.11-.09c-.36-.14-.24.1-.38.06l-.17-.09h.17A1.8,1.8,0,0,1,24.3,2h0c0,.05-.1.08-.22.08a1.46,1.46,0,0,1-.58,0l-.07.1-.21-.06V2c.2,0,.58,0,.84,0v0a3.82,3.82,0,0,1-.43,0c-.05,0-.17-.09-.08-.15l-.1.08a3.36,3.36,0,0,1-1-.07l0,0c-.1,0-.21,0-.24,0a2.32,2.32,0,0,1-.86-.19l-.05.09c-.06,0-.16-.15-.2,0l-.14,0c-.1,0-.16,0-.26,0h0c-.21-.05,0,.09-.24,0-.07-.07-.09.11-.21.09l-.11-.15c-.21-.09-.25,0-.56,0-.15-.06-.21-.18-.11-.27-.14.11-.06.08-.25.12,0-.05,0-.06,0-.1-.15-.07-.1,0-.22,0s-.1.25-.14.25l.05,0a.61.61,0,0,1-.42,0V1.69h-.16V1.64h-.22l0,0a1,1,0,0,1-.33,0v0c-.28-.13-.52,0-.85,0L17,1.5c-.11-.08,0,.11-.18.06V1.48c-.12.1-.15,0-.23-.09l0,.12-.15,0c-.17-.05-.09-.15-.06-.21l-.12.08,0-.1c-.09.11-.08,0-.24,0,0,0,0-.06,0-.08l-.25.12.15-.05,0,.14c-.16.1-.2,0-.32,0l.08,0c-.18,0-.18,0-.28-.08s.07.07,0,.09,0-.06-.08-.08a.18.18,0,0,1-.26.09s0,0,0,0-.05,0-.1,0l0-.11-.11.1c-.06,0-.16,0-.15,0l0,0-.5-.05V1.16c0,.12-.27,0-.26.1-.1-.09-.38,0-.32-.13-.33,0-.52.13-.93.05-.14-.15-.54-.11-.8-.12l-1.38.21c-.33-.18-.78.12-1.13.05l-.09.09c-.24-.1-.57.09-.9,0a.32.32,0,0,1-.13.07s0,0,.06.06-.28.06-.28,0l0,0c0-.1-.27.1-.38,0l.07.09-.17,0,0,0C7,2,6.59,1.77,6,2.18c0-.14-.11.1-.16,0-.22-.1-.31.13-.43.22v0l-.25.07c.09-.2-.12.19,0,0A11.13,11.13,0,0,0,3,3.38l0,0c-.18.08-.37.24-.53.25s-.23.26-.28.29S1.9,4,2,4c-.14.11-.2.32-.44.39s-.47.48-.56.36H1c-.32.09-.44.41-.76.54v0c-.08.26-.15.52-.22.78l.47.28.69,0A14.33,14.33,0,0,1,2.3,5.4C2.66,5.24,3,5.08,3.39,5A17.53,17.53,0,0,1,6,3.75l.16-.17c.59,0,1.22-.4,1.84-.37v-.1c.17,0,.17,0,.22,0a15.82,15.82,0,0,1,4.65-.38c.14.07.57,0,.68.11a4.77,4.77,0,0,1,1.46,0h.21a0,0,0,0,1,0,0,2.5,2.5,0,0,1,1,.1h0c1.82.16,3.54.15,5.39.36a26.75,26.75,0,0,0,2.88.07,5,5,0,0,0,1.21-.05A4.28,4.28,0,0,0,26.9,3Z" transform="translate(0 -0.42)"/><path class="cls-1" d="M29.65,1.58h0S29.67,1.6,29.65,1.58Z" transform="translate(0 -0.42)"/><polygon class="cls-1" points="25.45 1.6 25.46 1.6 25.41 1.55 25.45 1.6"/><path class="cls-1" d="M27.78,1.26c-.1,0-.1.05-.08.06S27.77,1.29,27.78,1.26Z" transform="translate(0 -0.42)"/><path class="cls-1" d="M30.45.93c.05,0,0,0,0,0L30.33,1Z" transform="translate(0 -0.42)"/><path class="cls-1" d="M29.89.63v0S29.87.63,29.89.63Z" transform="translate(0 -0.42)"/></g></g></svg>