<svg xmlns="http://www.w3.org/2000/svg" viewBox="0 0 514.91 462.97"><defs><style>.cls-1{fill:none;stroke:#000;stroke-linecap:round;stroke-miterlimit:10;stroke-width:5px;}</style></defs><title>reading-outline</title><g id="Layer_2" data-name="Layer 2"><g id="Layer_2-2" data-name="Layer 2"><path class="cls-1" d="M97,259.91s15.76-3.94,0-41.67l10.13-10.14-15.2-38.85s-9.58-24.78-33.79-27.6c0,0-16.89-.56-36.6,12.39,0,0-33.27,23.09-11.85,94L21,299.89s10.14-3.38,14.65,0a75,75,0,0,1,19.2,15.2S70.53,339.31,75,341c0,0,13,9.57,29.85,0l24.78-10.7,15.76-6.76,25.91-7.32s7.88,1.69,7.32,10.14c0,0,3.38,9.57,9,8.44,0,0,6.19,12.95-8.45,30.41,0,0-30.41,17.46-43.36,23.09,0,0-56.87,19.71-64.19,11.82,0,0-32.67-13.51-34.92-26.46,0,0-22.5-33.23-24.78-59.69,0,0-.13-9.48,10.33-12.39"/><path class="cls-1" d="M145.42,323.54s-17.64-47-9.38-51.72c0,0,40.89,4.61,52.92,20.37,0,0,15.78-44.3,24-43.17,0,0,33.41,60.44,24.78,86l-20.65,22.9-33.53,1.29"/><line class="cls-1" x1="217.88" y1="362.4" x2="188.96" y2="292.19"/><path class="cls-1" d="M239.2,345.13l95.43-24.4,19.9-6.76s28.33-4.51,36.31,0,14,7.88,18.12,13.32,13.89,20.46,13.89,20.46l28.54,57.44s8.25,15.77,8.25,21.4l15.4,4.13s16.7-3.69,21,6.38c1.13,2.63,3.38,6.76-1.88,10.89l-39.79,12.39-19.9-4.51-34.91-5.25-19.52-35.29s-10.89-14.27-9.39-16.52c0,0-11.26-17.64-15.77-16.89l-9.38-3.38-16.14,1.88-34.92,19.89-31.91,18.4S223.13,452.87,208.12,451c0,0-31.16,5.63-60.44-6.38,0,0-25.16-7.88-39.05-23.65,0,0-10-14-11-21.64h0"/><path class="cls-1" d="M240.78,304.09l21-16,29.28-18.39,34.17-17.27s30-10.93,52.55-3.4c0,0,8.64,4.69,20.28,22.82L422.48,296l13.89,16,21.4,17s15.76,11.64,33.78,11.64l16.52-1.88,3.76,3.38s-4.51,9-19.52,20.28c0,0-10.52,16-45.05,23.77"/><path class="cls-1" d="M109.76,206.6s59.32,10.89,89.35,52.18"/><path class="cls-1" d="M43.69,206.6s3,6,11.26,3.75c0,0,10.14-3.38,13.51-12.76"/><path class="cls-1" d="M77,246.43a18.38,18.38,0,0,0,6.47-.08s13.92-1.34,19.91-7.41"/><path class="cls-1" d="M65.8,76.89,55,68.45l-13.7-18S29.8,20.58,56.08,8.76c0,0,17.26-14.08,35.85,0l14.64,6.75s10.14,9,10.7,15.77c0,0,4.5,13.52,0,27,0,0-15,18.58-33.23,18.58L73,95.48Z"/><path class="cls-1" d="M63.15,32.41s1.47-3.1,4-.57c0,0-2.39,4.79-3.38.57"/><path class="cls-1" d="M85.36,29s-.19-3,2.81-1.5C88.17,27.53,88.55,33,85.36,29Z"/><path class="cls-1" d="M67.15,51.18s4.32,4.32,6.95,4.69l11.26-.75s6.19-3,8.82-9.2"/></g></g></svg>