<svg xmlns="http://www.w3.org/2000/svg" viewBox="0 0 548.16 484.51"><defs><style>.cls-1{fill:none;stroke:#39b28f;stroke-linecap:round;stroke-linejoin:round;stroke-width:25px;}</style></defs><title>reading-background</title><g id="Layer_2" data-name="Layer 2"><g id="Layer_2-2" data-name="Layer 2"><path class="cls-1" d="M36.74,175.8,12.5,266.47,61,160,20.08,301.26,71.27,172.43l-54.81,170L88.17,208.47,28.3,372.67l93.78-125.91-63.19,143,86-132.46s-59.61,140.59-63,147.23S173,267.38,173,267.38l-50.93,163,69.69-135.14L146,446.1l74.71-129.52L180.9,451.73l85.59-141.15L213.56,451.73l86.59-157.67L235,434.84,354.34,290.2,262,413.44,389.25,290.2l-89.1,107.47,103.74-87.09-58.56,70.2,118.25-70.2L387,380.78l96.85-50.43L366.72,429.21l99.11-63.07L393.65,445l90.2-31.54L414,451.73l63.82-2.62L422.34,472H535.66"/><polyline class="cls-1" points="31.11 74.25 58.89 35.02 57.76 86.83 88.17 12.5 86.85 95.28 115.62 40.62 120.08 76.7"/></g></g></svg>