<svg xmlns="http://www.w3.org/2000/svg" viewBox="0 0 513.08 459.31"><title>reading-outline</title><g id="Layer_2" data-name="Layer 2"><g id="Layer_2-2" data-name="Layer 2"><path d="M95.7,257.8a8.62,8.62,0,0,0,4.1-3.5l.7-1.19c.18-.42.34-.85.52-1.28l.25-.64.17-.67.33-1.34a32.85,32.85,0,0,0-.13-11.1,54.62,54.62,0,0,0-1.19-5.48c-.49-1.8-.94-3.62-1.6-5.38l-.91-2.66-.47-1.33-.53-1.3-2.11-5.22-.24-.62.46-.46,10-10.25-.26,1.22-8.18-20.26L92.55,176.2l-2-5.07-1-2.54-.26-.63-.24-.58c-.17-.39-.36-.79-.55-1.18a50,50,0,0,0-12.91-16.56,38.26,38.26,0,0,0-8.86-5.48,35.74,35.74,0,0,0-10-2.68h.14a39.14,39.14,0,0,0-4.09.25c-1.39.16-2.78.38-4.17.63a70.88,70.88,0,0,0-8.2,2.09,78.27,78.27,0,0,0-15.48,6.91l-3.6,2.22c-.16.12-.48.36-.72.56s-.51.43-.76.67c-.51.45-1,.93-1.48,1.42a43.58,43.58,0,0,0-5.19,6.55,60.92,60.92,0,0,0-7,15.32C2.74,189,2.05,200.59,2.83,212a165.92,165.92,0,0,0,6.35,33.91V246c1.82,8.65,3.62,17.3,5.5,25.94s3.72,17.28,5.65,25.9l-.83-.47a35.26,35.26,0,0,1,3.73-1,30.26,30.26,0,0,1,3.82-.53A16.56,16.56,0,0,1,31,296a8.74,8.74,0,0,1,3.8,1.44l-.09-.06c1.85,1,3.6,2.08,5.32,3.22s3.41,2.35,5,3.63,3.21,2.61,4.74,4,3,2.89,4.39,4.42l0,0,0,.06c3,4.56,6.19,9.08,9.44,13.48,1.64,2.21,3.3,4.38,5,6.48.87,1,1.76,2.07,2.68,3,.46.49.94.95,1.42,1.37a5.85,5.85,0,0,0,1.35.94l.1,0,.18.12a24,24,0,0,0,6.78,2.95,25.49,25.49,0,0,0,7.42.89,14.56,14.56,0,0,0,1.87-.12,12.81,12.81,0,0,0,1.85-.23l1.84-.34,1.81-.52a30.39,30.39,0,0,0,3.52-1.3c1.14-.5,2.24-1.14,3.36-1.7l.14-.07h0L143.47,320l.1,0,.12,0,25.87-7.44.48-.13.43.1a11.57,11.57,0,0,1,2,.68,13.53,13.53,0,0,1,1.76.94,11.27,11.27,0,0,1,3,2.77,10.3,10.3,0,0,1,1.77,3.74,11.7,11.7,0,0,1,.33,2c.06.67,0,1.32,0,2l-.1-.78a20.85,20.85,0,0,0,1.27,2.73,15.28,15.28,0,0,0,1.66,2.43,6.33,6.33,0,0,0,1.94,1.65,3.07,3.07,0,0,0,1.91.33l1.59-.25.6,1.35a11.64,11.64,0,0,1,.47,1.2c.13.37.22.74.32,1.12a17.27,17.27,0,0,1,.45,2.23l.16,1.12.07,1.12c.07.74,0,1.49,0,2.23a31.65,31.65,0,0,1-1.55,8.68l-.73,2.07c-.27.68-.59,1.33-.88,2a42.53,42.53,0,0,1-2,3.85c-.73,1.24-1.56,2.41-2.34,3.62l-2.63,3.39-.21.28-.36.2q-10.7,6.12-21.5,12c-3.61,2-7.23,3.89-10.89,5.78s-7.35,3.71-11.19,5.39l-.08,0-.07,0c-5.29,1.79-10.58,3.45-15.91,5s-10.69,3.08-16.1,4.4-10.88,2.51-16.45,3.32a66.13,66.13,0,0,1-8.51.75,25.16,25.16,0,0,1-4.45-.3,11.42,11.42,0,0,1-2.35-.63,6.24,6.24,0,0,1-2.39-1.54l.61.42c-3.52-1.53-6.9-3.17-10.27-4.94s-6.64-3.67-9.83-5.75a63.89,63.89,0,0,1-9.12-7,28.13,28.13,0,0,1-3.89-4.44A14.32,14.32,0,0,1,34.14,372l.21.54c-3-4.64-5.69-9.36-8.27-14.18s-5-9.72-7.15-14.74a137.44,137.44,0,0,1-5.63-15.39,84.91,84.91,0,0,1-3.1-16.11v0h0a13.42,13.42,0,0,1,1-4.38,12.4,12.4,0,0,1,2.32-3.79,12.9,12.9,0,0,1,3.43-2.78,16.42,16.42,0,0,1,2-1c.68-.26,1.39-.45,2.09-.68l.1.39c-.67.25-1.35.46-2,.74a13.94,13.94,0,0,0-1.87,1A12.49,12.49,0,0,0,12,308a12.8,12.8,0,0,0-.77,4.06v0a83.54,83.54,0,0,0,3.55,15.74l1.33,3.82c.43,1.28,1,2.52,1.46,3.77l.74,1.89.81,1.86c.54,1.23,1.05,2.48,1.63,3.7,2.25,4.91,4.76,9.7,7.41,14.41s5.47,9.34,8.47,13.77l.16.23.06.31A11.75,11.75,0,0,0,39,376a26,26,0,0,0,3.59,3.92,62.12,62.12,0,0,0,8.78,6.56c3.12,2,6.36,3.77,9.66,5.45s6.69,3.27,10.06,4.68l.37.15.24.27a5.22,5.22,0,0,0,2.76,1.05,21.69,21.69,0,0,0,3.82.19,62.86,62.86,0,0,0,8-.82c5.37-.86,10.72-2.11,16-3.48s10.62-2.87,15.89-4.48,10.53-3.29,15.71-5.08l-.15.06c3.66-1.62,7.3-3.47,10.91-5.35s7.22-3.78,10.81-5.73q10.77-5.83,21.42-11.93l-.57.48,2.45-3.13c.71-1.1,1.49-2.17,2.16-3.3a35.84,35.84,0,0,0,1.84-3.46c.26-.59.55-1.17.8-1.77l.66-1.83a27.45,27.45,0,0,0,1.41-7.51c0-.63,0-1.27,0-1.89l0-.94-.12-.93a15.4,15.4,0,0,0-.35-1.82c-.08-.29-.15-.59-.25-.86a6,6,0,0,0-.26-.74l2.2,1.1a7,7,0,0,1-4.54-.73,10.13,10.13,0,0,1-3.11-2.63,18.79,18.79,0,0,1-2.07-3.07,24.11,24.11,0,0,1-1.52-3.33l-.09-.25,0-.53c0-.47,0-1,0-1.43a7.46,7.46,0,0,0-.22-1.35,6.12,6.12,0,0,0-1.1-2.4,7.41,7.41,0,0,0-2-1.85,9.89,9.89,0,0,0-1.24-.67,7.67,7.67,0,0,0-1.24-.45l.91,0-25.93,7.21.21-.08-40.66,17.16.14-.07c-1.23.59-2.42,1.25-3.68,1.77a33.4,33.4,0,0,1-3.87,1.34c-.67.17-1.32.36-2,.52l-2,.33a15.33,15.33,0,0,1-2,.22,17.48,17.48,0,0,1-2,.08,28.07,28.07,0,0,1-8.1-1.15A25.78,25.78,0,0,1,73.11,340l.28.15a7.34,7.34,0,0,1-2-1.39c-.55-.5-1-1-1.53-1.54-1-1-1.85-2.11-2.72-3.2-1.74-2.17-3.38-4.4-5-6.65-3.2-4.51-6.27-9.08-9.25-13.73l.07.09c-1.34-1.51-2.71-3-4.2-4.38s-3-2.72-4.61-4-3.23-2.46-4.92-3.59-3.42-2.22-5.17-3.18l-.06,0,0,0a7.56,7.56,0,0,0-3.18-1.21,15.52,15.52,0,0,0-3.61-.12,28.3,28.3,0,0,0-3.65.49,34.67,34.67,0,0,0-3.58.89l-.69.22-.14-.69q-2.76-13-5.64-25.9c-1.88-8.64-3.84-17.25-5.78-25.88l0,.06A170.25,170.25,0,0,1,.52,212.22c-1.06-11.63-.63-23.57,2.6-35A60.82,60.82,0,0,1,10.3,161a46,46,0,0,1,5.51-7.13c.52-.55,1.06-1.09,1.63-1.61.27-.26.57-.52.87-.77s.56-.48,1-.78l3.79-2.36A81.72,81.72,0,0,1,39.28,141a73.39,73.39,0,0,1,8.65-2.16c1.47-.26,2.94-.48,4.43-.64A39.9,39.9,0,0,1,57,138h.14a39.31,39.31,0,0,1,11,3,41,41,0,0,1,9.63,6,49.22,49.22,0,0,1,7.73,8.21,55.24,55.24,0,0,1,5.83,9.6c.2.43.4.86.58,1.3l.28.69.25.64,1,2.54,2,5.1,3.87,10.22,7.74,20.43.27.71-.52.51L96.44,217l.22-1.08c1.35,3.57,2.72,7.12,3.76,10.79.6,1.81,1,3.68,1.44,5.54a56.29,56.29,0,0,1,1,5.63,33.75,33.75,0,0,1-.25,11.47l-.4,1.39-.21.7-.3.66c-.2.44-.39.89-.6,1.32l-.79,1.23a9.08,9.08,0,0,1-4.55,3.52Z"/><path d="M144,321.7c-1.82-4.14-3.47-8.33-5-12.58s-3-8.52-4.26-12.87A113.2,113.2,0,0,1,131.56,283a43.25,43.25,0,0,1-.63-7,14.93,14.93,0,0,1,.43-3.74,7.53,7.53,0,0,1,.8-2,4.85,4.85,0,0,1,1.76-1.82l.5-.29.56.07c4.89.57,9.66,1.36,14.43,2.4,2.38.52,4.75,1.08,7.1,1.75s4.69,1.34,7,2.17a87.08,87.08,0,0,1,13.43,5.91c4.26,2.44,8.38,5.36,11.39,9.39L187,290c.75-2,1.53-3.94,2.32-5.9s1.56-3.92,2.37-5.87c1.62-3.9,3.24-7.8,5-11.65s3.57-7.67,5.65-11.4a45.15,45.15,0,0,1,3.53-5.41,16.79,16.79,0,0,1,2.33-2.46,6.83,6.83,0,0,1,1.57-1,3.92,3.92,0,0,1,2.15-.39l.57.07.31.53q5.75,9.95,10.62,20.29c3.25,6.91,6.23,13.95,8.88,21.14a139.51,139.51,0,0,1,6.42,22.17A67.25,67.25,0,0,1,240,321.77a35.9,35.9,0,0,1-1.6,12l-.14.41-.27.29-10.5,11.29c-3.53,3.74-7,7.51-10.59,11.22l-.44.46h-.56l-16.78.14h-8.4q-4.2,0-8.4-.06v-.4q4.18-.39,8.37-.71l8.37-.66,16.74-1.14-1,.47c3.33-3.92,6.71-7.79,10.07-11.69L235,331.73l-.42.7a31.77,31.77,0,0,0,1.21-10.55,76,76,0,0,0-1.32-11c-.68-3.65-1.59-7.27-2.59-10.88s-2.11-7.2-3.35-10.75c-2.44-7.12-5.31-14.12-8.29-21.05s-6.17-13.83-9.57-20.56l.88.61a2.94,2.94,0,0,0-2,.78,13.8,13.8,0,0,0-2.1,2,42.45,42.45,0,0,0-3.61,5,107.76,107.76,0,0,0-6,11c-1.79,3.8-3.49,7.65-5.05,11.56q-1.17,2.94-2.28,5.88c-.72,2-1.43,4-2.11,6l-.45,1.33-.88-1.12a24.31,24.31,0,0,0-5.16-4.7,46.74,46.74,0,0,0-6.09-3.55,85.22,85.22,0,0,0-13.32-5c-4.57-1.33-9.2-2.44-13.87-3.44s-9.39-1.85-14.06-2.46l1.06-.22a2.76,2.76,0,0,0-1,1.71,13.3,13.3,0,0,0-.4,2.94,40.65,40.65,0,0,0,.39,6.46c.59,4.36,1.49,8.74,2.53,13.09s2.19,8.68,3.39,13,2.48,8.64,3.79,12.95Z"/><path d="M216.44,360.56a62.29,62.29,0,0,1-4.87-8.26c-.7-1.42-1.38-2.85-2-4.3a41.68,41.68,0,0,1-1.7-4.43c-1-3-1.58-6.2-2.67-9.17a60.57,60.57,0,0,0-4-8.6c-.76-1.4-1.57-2.78-2.28-4.19s-1.4-2.85-2.07-4.28c-1.34-2.87-2.7-5.74-3.85-8.69a111.66,111.66,0,0,1-5.44-18.28l.37-.16a110,110,0,0,1,9,16.82c1.27,2.9,2.32,5.88,3.39,8.87.53,1.49,1.07,3,1.55,4.49s.88,3.06,1.33,4.58a60.67,60.67,0,0,0,3.2,9c1.32,2.88,3.12,5.56,4.56,8.39a43,43,0,0,1,1.91,4.34q.87,2.22,1.6,4.47a61.19,61.19,0,0,1,2.36,9.3Z"/><path d="M237.9,343q11.86-3.33,23.75-6.54c7.92-2.16,15.83-4.36,23.76-6.46L333,317.34l-.12,0,19.86-6.87.13-.05.14,0a171.57,171.57,0,0,1,21.13-2.07,62.45,62.45,0,0,1,10.8.48,17,17,0,0,1,5.6,1.72l4.59,2.6a64.26,64.26,0,0,1,9,6,31.66,31.66,0,0,1,4,3.87c1.23,1.46,2.21,2.89,3.25,4.34,4.06,5.78,7.85,11.66,11.67,17.56l.06.09,0,.08,9.51,19.61,9.48,19.62,9.49,19.62c1.61,3.29,3.14,6.6,4.52,10,.69,1.69,1.33,3.42,1.9,5.18a20.65,20.65,0,0,1,1.15,5.56l-.57-.75L474,428.16h-.32a35.52,35.52,0,0,1,9.14-.57,17.87,17.87,0,0,1,8.8,2.74,10.74,10.74,0,0,1,3.2,3.47c.21.34.36.71.54,1.06l.45,1a16.85,16.85,0,0,1,.8,2.2,7.15,7.15,0,0,1-.24,4.8,9.79,9.79,0,0,1-3,3.69l-.09.07-.12,0-19.87,6.26-9.94,3.13-9.93,3.18-.2.06-.22-.05L433,454.94h.07l-35-4.9-.65-.09-.34-.6c-6.65-11.68-13.21-23.42-19.8-35.13l.13.21c-2-2.61-3.88-5.22-5.69-8-.9-1.37-1.78-2.75-2.59-4.24a19.88,19.88,0,0,1-1.14-2.36,8.73,8.73,0,0,1-.46-1.44,5.2,5.2,0,0,1-.11-1,4.25,4.25,0,0,1,.07-.69,3.13,3.13,0,0,1,.37-.88l0,2c-1-1.6-2.16-3.22-3.29-4.79s-2.3-3.12-3.51-4.61a50,50,0,0,0-3.79-4.23,16.13,16.13,0,0,0-2-1.7,6.46,6.46,0,0,0-.94-.55c-.26-.1-.46-.1-.38-.11l-1-.09-9.4-3.34.88.1-16.13,1.94.76-.25-66.76,38.39.33-.23c-4.14,3.51-8.32,6.86-12.6,10.14S241.44,435,237,438a133.39,133.39,0,0,1-14,8.34,59.48,59.48,0,0,1-7.63,3.25,21.09,21.09,0,0,1-8.7,1.29l.55,0a117.43,117.43,0,0,1-15.59,1.21,132.11,132.11,0,0,1-15.53-.7c-2.59-.23-5.15-.65-7.72-1-1.28-.22-2.55-.49-3.82-.74l-1.91-.37-1.89-.48-3.77-1-3.72-1.18-1.85-.59-1.82-.7-3.64-1.41.11,0a113.89,113.89,0,0,1-10.82-4.4c-3.51-1.64-6.95-3.45-10.29-5.42a93.78,93.78,0,0,1-9.63-6.55,66.3,66.3,0,0,1-8.46-8l0,0,0,0c-1.48-2.18-2.88-4.39-4.21-6.65s-2.6-4.56-3.73-6.94a31.7,31.7,0,0,1-2.65-7.44l-.17-1-.11-1-.21-2,0-.24v-.22h0l.53-.07,0,.49.11,1,.21,1.94-.4.06-.29-1.94-.14-1-.07-.48.53-.07h0v.11l0,.12,0,.24.29,1.93.14,1,.2.94a32.94,32.94,0,0,0,2.83,7.16A106.77,106.77,0,0,0,108,418.62l0-.06a65.44,65.44,0,0,0,8.47,7.57,92.48,92.48,0,0,0,9.57,6.19q5,2.79,10.22,5.08a108.86,108.86,0,0,0,10.63,4.05l.1,0,3.57,1.28,1.78.64,1.81.54,3.64,1.06,3.69.86,1.84.42,1.87.34c1.24.22,2.48.47,3.73.67,2.5.33,5,.71,7.52.89a125.82,125.82,0,0,0,15.16.47,112.84,112.84,0,0,0,15-1.36l.24,0,.3,0a17.71,17.71,0,0,0,7-1.22,54.76,54.76,0,0,0,7.08-3.14,141.21,141.21,0,0,0,13.49-8.26c4.38-3,8.66-6.14,12.86-9.4s8.35-6.62,12.35-10.07l.16-.13.17-.1,33.37-19.24,33.52-19,.37-.2.4-.05,16.15-1.81.46-.05.42.15,9.37,3.42-1-.09a4.74,4.74,0,0,1,2.49.38,9.56,9.56,0,0,1,1.62.93,20.05,20.05,0,0,1,2.48,2.11,54.22,54.22,0,0,1,4.06,4.59c1.25,1.58,2.44,3.19,3.6,4.81s2.26,3.27,3.36,5l0,2a.76.76,0,0,0,.14-.33s0-.08,0-.09,0,.09,0,.23a5.37,5.37,0,0,0,.27.85,19.72,19.72,0,0,0,.93,2c.72,1.35,1.54,2.69,2.39,4,1.7,2.65,3.55,5.28,5.43,7.82l.09.11,0,.09c6.42,11.81,12.87,23.61,19.24,35.45l-1-.69L433.39,453h.07l19.86,4.69h-.42l10-3,10-3.06,19.91-6.13-.2.11a8.48,8.48,0,0,0,2.65-3.18,5.9,5.9,0,0,0,.21-4,14.53,14.53,0,0,0-.73-2l-.46-1a9.21,9.21,0,0,0-.48-.94,9.62,9.62,0,0,0-2.85-3.07,16.69,16.69,0,0,0-8.19-2.48,33.36,33.36,0,0,0-8.76.6l-.16,0-.16,0-15.42-4-.54-.15,0-.6a18.5,18.5,0,0,0-1.16-5.05q-.88-2.53-2-5c-1.43-3.31-3-6.56-4.68-9.77l-9.93-19.4L430,366l-9.88-19.44.1.17c-3.86-5.82-7.76-11.65-11.75-17.35-1-1.4-2-2.85-3.05-4.06a28.11,28.11,0,0,0-3.55-3.43,67.91,67.91,0,0,0-8.5-5.67l-4.53-2.6a13.91,13.91,0,0,0-4.41-1.34,59.86,59.86,0,0,0-10.16-.5,182.12,182.12,0,0,0-20.7,1.87l.27-.07-19.94,6.64-.07,0h0L285.92,332c-8,2-16,3.83-23.95,5.75s-16,3.81-24,5.66Z"/><path d="M239.41,302l5.09-4.23,5.12-4.18c3.41-2.8,6.82-5.58,10.27-8.33h0l.06,0c4.8-3.2,9.63-6.34,14.45-9.5l14.52-9.39.05,0,.09,0,17-8.74,8.54-4.3c2.85-1.45,5.73-2.83,8.59-4.24l.11,0,.07,0c2.2-.75,4.35-1.35,6.55-1.89s4.4-1,6.61-1.46a120.83,120.83,0,0,1,13.4-1.82,92.45,92.45,0,0,1,13.52.07,62.52,62.52,0,0,1,13.26,2.68l.06,0,0,0a26.83,26.83,0,0,1,3.2,2.33c1,.83,2,1.71,2.89,2.61,1.86,1.8,3.62,3.69,5.28,5.65s3.24,4,4.81,6.06l2.25,3.13,2.17,3.2-.11-.13L422.23,293l0,0,.06.06,7.07,7.9,7.06,7.91-.23-.23,12.52,9.77,6.25,4.89,1.56,1.22.78.61.39.31.34.23c1,.71,2.13,1.39,3.25,2a73.09,73.09,0,0,0,14.05,6.3,51.17,51.17,0,0,0,14.95,2.52h-.24l16.53-1.76.93-.1.66.6,3.73,3.41,1.17,1.06-.72,1.31a28.46,28.46,0,0,1-2.09,3.22c-.72,1-1.48,2-2.26,2.9-1.56,1.86-3.23,3.62-4.95,5.31s-3.52,3.29-5.37,4.83c-.92.77-1.87,1.5-2.8,2.25L492,361.76l.38-.4a27.07,27.07,0,0,1-2.27,2.67c-.79.8-1.59,1.59-2.44,2.31a56.7,56.7,0,0,1-5.25,4.07,76.67,76.67,0,0,1-11.49,6.42l-3,1.33-3.06,1.17-1.53.58-1.55.5-3.11,1c-2.08.62-4.19,1.13-6.29,1.71l-6.36,1.33-.09-.39,6.22-1.81c2-.7,4.09-1.34,6.1-2.09l3-1.18,1.5-.59,1.46-.66,2.94-1.31L470,375a74.24,74.24,0,0,0,10.83-6.73,55.5,55.5,0,0,0,4.81-4.09c.76-.72,1.48-1.47,2.18-2.23a25.52,25.52,0,0,0,1.86-2.32l.14-.21.24-.2,2.72-2.18c.88-.76,1.78-1.5,2.64-2.27,1.72-1.55,3.42-3.13,5-4.79s3.15-3.36,4.57-5.15c.7-.9,1.4-1.81,2-2.74a26.29,26.29,0,0,0,1.71-2.75l.44,2.37-3.77-3.35,1.58.51-16.5,2-.12,0h-.13A55,55,0,0,1,474,338.1a72.05,72.05,0,0,1-14.82-6.87c-1.17-.71-2.31-1.45-3.45-2.25l-.48-.34-.38-.31-.78-.63-1.54-1.25-6.19-5-12.37-10-.14-.11-.09-.11L427,303.09,420.15,295l.07.08L396.3,270.44l-.06-.07,0-.06-2.08-3.21L392,264c-1.49-2.06-3-4.09-4.68-6a66.7,66.7,0,0,0-5.17-5.59,36.79,36.79,0,0,0-5.86-4.68l.1,0a55.81,55.81,0,0,0-13-2.27,89.53,89.53,0,0,0-13.2.54,116.89,116.89,0,0,0-13,2.36,125,125,0,0,0-12.62,3.74l.19-.08c-2.84,1.47-5.65,3-8.5,4.4l-8.53,4.33-17.14,8.53.14-.07-14.76,9c-4.94,3-9.87,6-14.84,8.9l.08-.06c-3.56,2.6-7.15,5.15-10.75,7.7l-5.39,3.83-5.42,3.79Z"/><path d="M108.55,204.49a49.39,49.39,0,0,1,6.66.64c2.2.32,4.38.78,6.54,1.3s4.31,1.09,6.42,1.78a55.75,55.75,0,0,1,6.25,2.31c4.07,1.79,7.92,4.07,11.89,6s8,3.74,12.07,5.54c2,.91,4.05,1.86,6,2.89s3.9,2.15,5.78,3.36a87.64,87.64,0,0,1,10.89,7.82A72.5,72.5,0,0,1,198,256.75l-.32.24c-3.19-3.11-6.21-6.24-9.46-9.15s-6.49-5.75-9.89-8.43l-1.25-1-1.28-1-2.54-2c-1.72-1.32-3.43-2.65-5.2-3.91-3.54-2.51-7.11-5-10.76-7.47a66.79,66.79,0,0,0-11.54-6.28c-4.05-1.7-8.35-2.77-12.52-4-2.09-.64-4.16-1.34-6.21-2.07l-6.18-2.18c-4.12-1.48-8.25-2.91-12.4-4.52Z"/><path d="M42.62,204.6a26.22,26.22,0,0,0,3.4,1.63c.27.09.51.2.78.27a6.82,6.82,0,0,0,.77.23c.25.08.51.14.77.21s.51.18.78.26c.53.21,1.11.42,1.72.62a5.12,5.12,0,0,0,1.9.17,4.09,4.09,0,0,0,.91-.17,5.86,5.86,0,0,0,.87-.43,8.58,8.58,0,0,0,1.55-1.22c.94-.95,1.86-1.84,2.77-2.67s1.72-1.77,2.59-2.59c1.78-1.64,3.48-3.27,5.6-5.3l.37.13a11,11,0,0,1-2.89,8.12,13.21,13.21,0,0,1-3.42,2.68,12,12,0,0,1-4,1.57c-.69.18-1.39.31-2.05.52-.33.1-.66.2-1,.32s-.69.18-1,.3a15.57,15.57,0,0,1-4.31,1.26c-3.17.05-6.35-2.56-6.46-5.73Z"/><path d="M53.9,208.42a3.58,3.58,0,0,1,.93.51,2.44,2.44,0,0,1,.56.55,1.19,1.19,0,0,1,.25,1.21c-.21.44-.8.92-.88,1.34s.17.8.59,1.17a3,3,0,0,1,.93,1.12,2.47,2.47,0,0,1,.39,1.2,2.8,2.8,0,0,1-.42,1.28A4.84,4.84,0,0,1,55,218.18l-.39,0a4.72,4.72,0,0,1-1.51-1.06,3,3,0,0,1-.7-1.15,2.45,2.45,0,0,1,.11-1.25,3,3,0,0,1,.64-1.31,1.26,1.26,0,0,0,.31-1.28c-.17-.39-.85-.72-1.16-1.1a1.2,1.2,0,0,1,0-1.23,2.63,2.63,0,0,1,.42-.67,3.55,3.55,0,0,1,.79-.71Z"/><path d="M62,203.31a3.52,3.52,0,0,1,1-.26,2,2,0,0,1,.69,0c.37.09.71.2.74.61s-.2,1.08-.07,1.4.5.41,1,.37a2.36,2.36,0,0,1,1.24.14,1.56,1.56,0,0,1,.84.51,2.06,2.06,0,0,1,.26,1.08,4.68,4.68,0,0,1-.32,1.65l-.29.27a4.31,4.31,0,0,1-1.65.27,2,2,0,0,1-1.07-.29,1.61,1.61,0,0,1-.49-.86,2.33,2.33,0,0,1-.09-1.24c0-.49,0-.87-.34-1s-1,.08-1.4,0-.51-.4-.59-.77a2,2,0,0,1,0-.68,3.77,3.77,0,0,1,.29-.95Z"/><path d="M71.8,241.67a13.38,13.38,0,0,1,2.9,0,24.11,24.11,0,0,1,2.65.39,12.7,12.7,0,0,1,2.44.67,10.07,10.07,0,0,0,2.24.85l.12,0a8.11,8.11,0,0,0,5.17-1.09c.81-.42,1.61-.86,2.41-1.21s1.62-.66,2.4-1,1.57-.68,2.36-1c.4-.15.8-.27,1.21-.39s.79-.27,1.2-.39l5.1-1.61.28.28a10.33,10.33,0,0,1-3.68,4.59,13.46,13.46,0,0,1-5.2,2.36c-.92.21-1.85.37-2.78.51a17.92,17.92,0,0,1-2.84,0,12.33,12.33,0,0,0-5.46.66l.11,0a8.49,8.49,0,0,1-3.2.7,7.68,7.68,0,0,1-2.87-.61,13.08,13.08,0,0,1-2.54-1.33,9.63,9.63,0,0,1-2.18-2Z"/><path d="M64.39,75.1q-2.89-1.95-5.71-3.91l-5.57-3.9L53,67.24l-.1-.13c-2.39-2.92-4.8-5.82-7.16-8.77s-4.73-5.89-7.06-8.85l-.14-.18-.08-.22a44.53,44.53,0,0,1-2.65-12.46,38,38,0,0,1,0-6.4,33.81,33.81,0,0,1,1.25-6.35,27,27,0,0,1,2.62-5.95,26.57,26.57,0,0,1,4-5.12A32.74,32.74,0,0,1,54.39,5.88L54.16,6a34.91,34.91,0,0,1,8.91-4.41A32,32,0,0,1,72.77,0H74c.41,0,.82.08,1.23.11.82.09,1.65.11,2.46.27L80.1.89a5.94,5.94,0,0,1,1.18.35l1.17.4A30.11,30.11,0,0,1,87,3.6a16.62,16.62,0,0,1,2.11,1.27l2.09,1.32L91,6.1l14.84,6.32.15.06.17.15c1.29,1.1,2.47,2.22,3.64,3.4a47.39,47.39,0,0,1,3.32,3.74A27.65,27.65,0,0,1,116,24a14.41,14.41,0,0,1,1.78,5.21l-.08-.42a47,47,0,0,1,1.62,7,52.46,52.46,0,0,1,.63,7.08,44,44,0,0,1-.38,7.15,42.1,42.1,0,0,1-1.55,7l-.1.34-.26.32c-1.14,1.38-2.26,2.57-3.46,3.77s-2.42,2.34-3.7,3.45a60.33,60.33,0,0,1-8.18,6A47.79,47.79,0,0,1,93,75.19a35.36,35.36,0,0,1-10.24,1.57l1.53-.87L78.55,85l-5.86,9.1-1.28,2L70.67,94l-1.6-4.65c-.54-1.55-1-3.13-1.57-4.7C66.47,81.47,65.41,78.32,64.39,75.1Zm.33-.24c1.37,3,2.7,6,4,9.06.67,1.53,1.37,3,2,4.6l2,4.64-2-.17L76,83.5l5.31-9.43.45-.81,1.07-.06a31.6,31.6,0,0,0,9-1.73,47.3,47.3,0,0,0,8.37-4.09,67.93,67.93,0,0,0,7.55-5.67,62.33,62.33,0,0,0,6.66-6.64l-.36.66a39.29,39.29,0,0,0,1.54-6.29,40.59,40.59,0,0,0,.5-6.53,48.35,48.35,0,0,0-.42-6.58,45,45,0,0,0-1.3-6.4l-.08-.26v-.15A11,11,0,0,0,113,25.58a27.87,27.87,0,0,0-2.39-3.89c-.9-1.27-1.9-2.49-2.93-3.68s-2.12-2.37-3.22-3.44l.31.21L90.33,7.59l-.06,0-.09-.06a46.9,46.9,0,0,0-3.9-2.65,28.07,28.07,0,0,0-4.26-2,23.88,23.88,0,0,0-9.23-1.59A26.46,26.46,0,0,0,63.57,3c-.72.31-1.46.6-2.17.92S60,4.64,59.32,5.06a26.26,26.26,0,0,0-3.83,2.6l-.08.07-.15.07a30.38,30.38,0,0,0-9.36,7,26,26,0,0,0-5.37,10.07,34.71,34.71,0,0,0-1.17,11.52,43,43,0,0,0,.71,5.86,44.34,44.34,0,0,0,1.42,5.67l-.22-.4q3.36,4.56,6.65,9.17c2.21,3.06,4.36,6.16,6.54,9.25l-.18-.18,5.29,4.54C61.32,71.83,63,73.35,64.72,74.86Z"/><path d="M61.71,30.41a2.06,2.06,0,0,1-.31-1.06,2,2,0,0,1,.21-1,2.12,2.12,0,0,1,1.86-1.15,2.5,2.5,0,0,1,1.79,1.28,1.68,1.68,0,0,0,.55.52,1.92,1.92,0,0,0,.71.28l.09,0,.07,1a4,4,0,0,1,0,1.86A3.12,3.12,0,0,1,65.26,34l-.39.18a3.32,3.32,0,0,1-.56.13,2.36,2.36,0,0,1-.6,0,3.15,3.15,0,0,1-.69-.16,1.55,1.55,0,0,1-.54-.3,2.66,2.66,0,0,1-.43-.39,2,2,0,0,1-.36-.73,1.16,1.16,0,0,1-.07-.62,2.05,2.05,0,0,1,.1-.56,3.85,3.85,0,0,1,.61-1l.39-.09c.21.06.38.13.54.19a4.52,4.52,0,0,1,.45.16c.15,0,.27.05.38.07s.21.06.26,0,.13-.07.08-.21-.15-.22-.37-.36a.79.79,0,0,0-.34-.1,1.39,1.39,0,0,0-.27,0,.87.87,0,0,0-.22,0,.15.15,0,0,0-.09,0c-.15.08.27,0,.57-.18a14.86,14.86,0,0,1,1.41-.49l.16,1c0-.44-.31-.78-.7-.69a.79.79,0,0,0-.5.38.58.58,0,0,0-.1.44c.06.15,0,0-.32-.05a14.33,14.33,0,0,0-1.58-.05Z"/><path d="M83.92,27.19a3,3,0,0,1-.74-.73,1.72,1.72,0,0,1-.27-.87,1.89,1.89,0,0,1,.28-1,2.27,2.27,0,0,1,1-.89,1.57,1.57,0,0,1,1.2,0,1.88,1.88,0,0,1,.81.57c.38.47.64.77,1,.84l.25.05.1.47c.11.52.71,1,1,1.68a2.55,2.55,0,0,1,.09,1.09,3.2,3.2,0,0,1-.16.71,3,3,0,0,1-.57.89,2.63,2.63,0,0,1-1.38.69,3.48,3.48,0,0,1-.79,0,2.32,2.32,0,0,1-.51-.16,4.12,4.12,0,0,1-.47-.23,3.08,3.08,0,0,1-.26-.24,2.4,2.4,0,0,1-.41-.52,4.3,4.3,0,0,1-.31-1.1,1.72,1.72,0,0,1,0-.64A1.42,1.42,0,0,1,83.92,27.19Zm.37-.15A3.41,3.41,0,0,0,85,27a3.3,3.3,0,0,0,.48-.1,3.68,3.68,0,0,1,.74-.11c.11,0,.14-.09.19-.12s0,0,0-.05a.37.37,0,0,0-.12-.13.51.51,0,0,0-.17-.07,1,1,0,0,0-.43,0,1.22,1.22,0,0,0-.74.39.44.44,0,0,0-.16.31s.06.1.11.05.19-.18.38-.32c.35-.3,1-.76,1-1.19l.34.51a.65.65,0,0,0-.43-.14,1,1,0,0,0-.49.26c-.3.32-.29.75,0,.66s.22-.41-.06-.37a1.5,1.5,0,0,0-.52.15c-.11,0-.22.1-.35.16l-.2.1C84.46,27,84.4,27.12,84.29,27Z"/><path d="M66,49.12a20.41,20.41,0,0,1,4,1.64l1.69.87a10.23,10.23,0,0,1,1.32.74l-.33,0c1,.15,1.91.46,2.87.61a8.34,8.34,0,0,0,2.82,0,15.58,15.58,0,0,0,2.78-.78A16.35,16.35,0,0,1,84,51.4l-.67.18c.7-.5,1.52-1.2,2.25-1.81s1.51-1.23,2.29-1.83,1.56-1.23,2.37-1.88,1.57-1.38,2.52-2.13l.36.16a8.32,8.32,0,0,1-.63,3.53,12.2,12.2,0,0,1-4.36,5.55,17.14,17.14,0,0,1-3.22,1.67l-.45.18h-.22a17.67,17.67,0,0,1-2.86-.38,16.59,16.59,0,0,0-2.85-.41,8.68,8.68,0,0,0-2.81.35c-.92.27-1.83.71-2.76,1h-.33A4.92,4.92,0,0,1,70,54.76a9.94,9.94,0,0,1-1.84-1.46,10.56,10.56,0,0,1-1.43-1.77,8.57,8.57,0,0,1-1-2.12Z"/></g></g></svg>