<?xml version="1.0" encoding="utf-8"?>
<!-- Generator: Adobe Illustrator 25.1.0, SVG Export Plug-In . SVG Version: 6.00 Build 0)  -->
<svg version="1.1" id="Layer_1" xmlns="http://www.w3.org/2000/svg" xmlns:xlink="http://www.w3.org/1999/xlink" x="0px" y="0px"
	 viewBox="0 0 48 48" style="enable-background:new 0 0 48 48;" xml:space="preserve">
<style type="text/css">
	.st0{fill:none;}
	.st1{fill:#86C9DB;}
</style>
<rect class="st0" width="48" height="48"/>
<path class="st1" d="M47,39.1c2.4-3.7-0.1-8.7-3.6-11.3s-7.9-3.7-11.6-6.1c-1.5-1-2.9-2.3-3.5-4c-0.6-1.7,0-3.9,1.6-4.7
	c1.1-0.6,2.4-0.4,3.7-0.3c1.2,0.1,2.6,0.1,3.6-0.6c1-0.8,1-2.6-0.1-3.1c-0.8-0.3-2.3-0.3-2-1.2C36,7.2,37,6.6,37.9,6
	C36,5.7,34,6.6,33.1,8.3c0.5,0.5,1.1,0.9,1.8,1c0.1,1.2-1.5,1.5-2.7,1.5c-2.1-0.1-4.2-0.1-6.1,0.8s-3.4,2.7-3.3,4.8
	c0.1,1.6,1.2,3,1.3,4.5c0.1,2.7-2.5,4.5-4.9,5.8c-4.1,2-8,4.5-11.9,6.7c-2,1.1-4,2.3-6,3.4c-0.4,0.2-1.8,0.9-0.9,1.4
	c0.4,0.2,1.2,0,1.7,0c0.6,0,1.2,0,1.8,0c4.6,0.1,9.2,0.2,13.9,0.2s9.2,0.2,13.9,0.2s9.2,0.2,13.9,0.2C45.9,39.1,46.5,39.1,47,39.1z"
	/>
</svg>
