<?xml version="1.0" encoding="utf-8"?>
<!-- Generator: Adobe Illustrator 25.1.0, SVG Export Plug-In . SVG Version: 6.00 Build 0)  -->
<svg version="1.1" id="Layer_1" xmlns="http://www.w3.org/2000/svg" xmlns:xlink="http://www.w3.org/1999/xlink" x="0px" y="0px"
	 viewBox="0 0 48 48" style="enable-background:new 0 0 48 48;" xml:space="preserve">
<style type="text/css">
	.st0{fill:none;}
	.st1{fill:#86C9DB;}
</style>
<rect class="st0" width="48" height="48"/>
<path class="st1" d="M47.1,39.1c2.4-3.2-0.9-7.2-4.3-9.4c-3.5-2.2-7.8-3.2-11.5-5.2c-1.5-0.9-5-3.3-5.6-4.8
	c-0.6-1.4,0.5-2.1,2.1-2.8c1.1-0.5,4-0.2,5.3-0.1c1.2,0.1,2.6,0.1,3.6-0.5c1-0.7,1-2.2-0.1-2.6c-0.6-0.2-1.2-0.2-1.7-0.4
	c-0.1,0-0.6-0.2-0.7-0.3c-0.1-0.1,0-0.5,0-0.6s0.7-0.5,0.7-0.5c0.9-0.5,1.5-0.3,2.4-0.8c-0.1,0.1-0.5,0.1-0.6,0.1
	c-0.2,0-2,0.4-2.2,0.4s-1.2,0.3-1.4,0.5c-0.1,0.1-0.3,0.2-0.3,0.4c0,0.1,0,0.2,0.1,0.4c0,0.2,0.1,0.4,0.2,0.5
	c0.1,0.2,0.7,0.4,0.8,0.4c0.2,0,0.4,0,0.4,0.3c0,0.2-0.1,0.4-0.2,0.5c-0.2,0.2-0.4,0.3-0.6,0.4c-0.6,0.2-1.2,0.3-1.8,0.3
	c-2.1-0.1-6.8,0-8.7,0.7c-1.9,0.8-3.7,1.7-3.6,3.5c0.1,1.4,4.2,3.1,4.3,4.4c0.1,2.3-2.5,3.8-4.8,4.9c-4,1.7-7.9,3.8-11.7,5.7
	c-2,0.9-3.9,2-5.9,2.9c-0.4,0.2-1.8,0.8-0.9,1.2c0.4,0.2,1.2,0,1.7,0c0.6,0,1.2,0,1.8,0c4.5,0.1,9.1,0.2,13.7,0.2S26.7,39,31.3,39
	S46.6,39.1,47.1,39.1z"/>
</svg>
