<svg xmlns="http://www.w3.org/2000/svg" viewBox="0 0 181.07 204.62"><title>smile</title><g id="Layer_2" data-name="Layer 2"><g id="Layer_3" data-name="Layer 3"><path d="M78,205c4-7.17,7.73-14.26,11.34-21.09,1.8-3.43,3.57-6.81,5.38-10.12s3.59-6.62,5.42-9.9l.56-1,1.31-.06a65.42,65.42,0,0,0,10.16-1.14,75.41,75.41,0,0,0,9.88-2.76,91.78,91.78,0,0,0,18.46-9.1,129.3,129.3,0,0,0,16.61-12.44c2.6-2.3,5.13-4.68,7.6-7.11s4.88-5,7-7.55l-.53,1,1-3.42.54-1.71c.15-.57.27-1.16.41-1.74l.83-3.5.61-3.54L175,108l.21-1.79c.14-1.2.31-2.39.42-3.59.15-2.41.35-4.82.35-7.24a107.46,107.46,0,0,0-.67-14.56l-.47-3.62c-.2-1.21-.38-2.41-.6-3.61-.43-2.39-1-4.81-1.61-7.08l-.07-.24v-.14a25.71,25.71,0,0,0-2.85-9.43A63.28,63.28,0,0,0,164.21,48a93.82,93.82,0,0,0-6.64-8c-2.35-2.56-4.79-5.07-7.34-7.39l.26.17-8-3.63c-2.65-1.21-5.3-2.44-8-3.62-5.34-2.36-10.65-4.79-16-7.09l-.11,0-.15-.11a70.14,70.14,0,0,0-18.08-9.45,59.69,59.69,0,0,0-9.85-2.31,57.18,57.18,0,0,0-10-.51A63.17,63.17,0,0,0,60.73,10a71,71,0,0,0-9.14,4.17c-1.47.8-2.91,1.66-4.31,2.56-.7.45-1.39.92-2.06,1.39s-1.37,1-1.89,1.41L43,19.8l-.4.19a65.42,65.42,0,0,0-20.5,14.57,53.22,53.22,0,0,0-12,21.65A67.45,67.45,0,0,0,7.8,68.57a82.91,82.91,0,0,0-.14,12.71A99.52,99.52,0,0,0,9.23,94c.41,2.1.86,4.19,1.4,6.26.27,1,.55,2.06.85,3.08s.64,2.07.95,2.94l-.49-.88c4.93,6.54,9.74,13.17,14.62,19.76S36.24,138.38,41.07,145l-.5-.5,11.56,9.44,11.54,9.49.48.4.16.46,3.36,9.84c1.13,3.29,2.19,6.65,3.3,10l3.41,10.31C75.56,197.92,76.76,201.47,78,205Zm-.06.7c-1.34-3.2-2.73-6.37-4.14-9.64l-4.37-9.87c-1.48-3.34-3-6.69-4.48-10.13l-4.41-10.33.64.86-12-8.85-12-8.89-.24-.18-.26-.33c-5.09-6.42-10.2-12.82-15.24-19.28S11.29,116.19,6.3,109.7L6,109.3l-.18-.48c-.46-1.21-.8-2.25-1.16-3.38s-.67-2.21-1-3.32c-.61-2.22-1.14-4.45-1.61-6.7A101,101,0,0,1,.18,81.75,90.79,90.79,0,0,1,.37,67.86,73,73,0,0,1,3,54.11,60.44,60.44,0,0,1,17.09,29.85,71.94,71.94,0,0,1,40,14.18l-.7.43c.84-.66,1.55-1.15,2.33-1.68s1.54-1,2.33-1.48Q46.3,10,48.74,8.79a75.1,75.1,0,0,1,10-4.25A66.08,66.08,0,0,1,80.26,1.08,61.4,61.4,0,0,1,91.09,2.2a63.18,63.18,0,0,1,10.4,3A73,73,0,0,1,120,16l-.26-.16c5.23,2.59,10.52,5.06,15.78,7.59,2.63,1.26,5.28,2.47,7.92,3.71l7.93,3.71.15.06.11.1c2.64,2.41,5.14,4.88,7.57,7.47s4.71,5.28,6.93,8.07a66.2,66.2,0,0,1,6,8.9,29,29,0,0,1,3.69,10.45l-.08-.39a104.23,104.23,0,0,1,3.67,14.75A110.6,110.6,0,0,1,181,95.32c.14,2.54.05,5.08,0,7.63-.05,1.28-.16,2.55-.25,3.82l-.13,1.92-.25,1.9-.54,3.81-.77,3.77c-.14.63-.25,1.26-.4,1.89l-.52,1.86-1,3.72-.14.5-.39.47c-2.4,2.91-4.84,5.5-7.4,8.09s-5.2,5-8,7.38a134.23,134.23,0,0,1-17.58,12.79A97.45,97.45,0,0,1,123.74,164a75.33,75.33,0,0,1-10.71,2.5,69.79,69.79,0,0,1-11,.73l1.87-1.06c-2.18,3.45-4.39,6.87-6.6,10.27s-4.43,6.76-6.64,10.05C86.25,193.06,82,199.41,78,205.7Z" transform="translate(0 -1.07)"/><path d="M58.36,68.35a18.28,18.28,0,0,1,1.9.87,3.63,3.63,0,0,0,1.15.44c.05,0,.1,0,.13,0s.05,0,0-.12a1,1,0,0,0-1.27-.34.21.21,0,0,0,0,.34,1.93,1.93,0,0,0,1.35.3,1.83,1.83,0,0,0,1.29-.66,2.36,2.36,0,0,0,.49-1.36,6,6,0,0,0-.17-1.63l.44,2.72a5.19,5.19,0,0,1-1.22-.14,5.32,5.32,0,0,0-.82-.07,1.77,1.77,0,0,1-.29,0c-.08,0-.11.09-.14.09s0,0,0,0v-.08c0-.17-.35-.46-1.09-.48a16,16,0,0,0-3.1.31l-.64-.3a4.62,4.62,0,0,1-.35-2,5.16,5.16,0,0,1,.47-1.94,5.41,5.41,0,0,1,3.62-2.88,5.58,5.58,0,0,1,4.7,1.09,10.61,10.61,0,0,1,1.45,1.37A6.37,6.37,0,0,1,67,65.54l.8,2.46-.36.26c-.58.41-1.16.65-1.65,1a4,4,0,0,0-1.18,1.14A4.76,4.76,0,0,0,64,72.05a4.77,4.77,0,0,1-1,2.2,3.31,3.31,0,0,1-1.39.92,3.71,3.71,0,0,1-2.24,0,4.14,4.14,0,0,1-1.81-1.11,4.31,4.31,0,0,1-.82-1.29,3.81,3.81,0,0,1-.17-2.26,4.74,4.74,0,0,1,1.07-2Z" transform="translate(0 -1.07)"/><path d="M110.7,58a2.41,2.41,0,0,0-1.42.9c0,.07-.13.13-.22.18l-.27.15a3.28,3.28,0,0,1-.46.23c-.51.35-.62.63-.37.55.06,0,.09-.1.08-.18a.36.36,0,0,0-.14-.25,1.09,1.09,0,0,0-.93-.11A1.28,1.28,0,0,0,106,61l-.24-.61c.73.69,2.24.7,3.09.69.39,0,.72,0,.56-.23a.56.56,0,0,0-.27-.16,1.59,1.59,0,0,0-.57-.09,2.25,2.25,0,0,0-1.24.46c-.48.43-.31.48-.15.32a7.22,7.22,0,0,0,.78-.82c.31-.36.69-.78,1.12-1.23.22-.23.44-.47.71-.72l.41-.38.23-.19.12-.1C110.58,57.93,110.56,57.84,110.7,58Zm.59-.39c.14.25.13.23.19.26l.13.1a2.51,2.51,0,0,1,.24.19,4.26,4.26,0,0,1,.43.41,6.09,6.09,0,0,1,.71.84,6.48,6.48,0,0,1,.89,1.88,5.43,5.43,0,0,1,.16,2.24,5,5,0,0,1-1.64,3,4.84,4.84,0,0,1-2.62,1.15,5,5,0,0,1-1.35,0,6.2,6.2,0,0,1-1-.32,4.69,4.69,0,0,1-2.13-1.79c-.77-1.32-.65-2.87-1.23-3.79l-.26-.4v-.22a4.75,4.75,0,0,0,0-1.36c-.07-.46-.22-1-.33-1.59a4,4,0,0,1,.16-2.08,4.19,4.19,0,0,1,.66-1.05,4.25,4.25,0,0,1,1-.77,5,5,0,0,1,1.2-.35,3.75,3.75,0,0,1,1.11,0,4.34,4.34,0,0,1,.52.07l.44.16a5.66,5.66,0,0,1,.82.4,6.53,6.53,0,0,1,.63.55l.28.31a4.78,4.78,0,0,0,.3.38A2.35,2.35,0,0,1,111.29,57.64Z" transform="translate(0 -1.07)"/><path d="M65.6,108.93a41.31,41.31,0,0,1,4.4,1.91c1.37.69,2.7,1.4,4,2.11s2.53,1.4,3.72,2l3.13,1.61-.59,0c2.07.22,4.15.75,6.21,1a23.29,23.29,0,0,0,6.13-.14,42.07,42.07,0,0,0,6-1.45,43.32,43.32,0,0,1,6-1.39l-1.18.31c.34-.23.83-.56,1.26-.87s.86-.64,1.29-1c.87-.66,1.7-1.37,2.55-2l5-4.1c1.7-1.36,3.35-2.81,5-4.34s3.23-3.18,5.08-4.91l.65.27a20.46,20.46,0,0,1-1.76,7.38,27.21,27.21,0,0,1-4,6.49,26.69,26.69,0,0,1-5.55,5.17l-1.59,1c-.55.31-1.1.64-1.66.93s-1.12.59-1.7.86-1.13.53-1.84.83l-.75.31h-.42a44.8,44.8,0,0,1-6.18-.57,40.75,40.75,0,0,0-6.18-.64,22.82,22.82,0,0,0-6.09.68c-2,.5-4,1.3-6,1.8l-.59,0a10.78,10.78,0,0,1-5.39-1.71,22.52,22.52,0,0,1-4-3,25.15,25.15,0,0,1-3.18-3.66,19.75,19.75,0,0,1-2.38-4.31Z" transform="translate(0 -1.07)"/></g></g></svg>