<svg xmlns="http://www.w3.org/2000/svg" viewBox="0 0 300.04 242.21"><defs><style>.cls-1{fill:none;stroke:#ffdf61;stroke-miterlimit:10;stroke-width:5px;}</style></defs><title>soothe</title><g id="Layer_2" data-name="Layer 2"><g id="Layer_1-2" data-name="Layer 1"><path class="cls-1" d="M15,164.07s-52-99,56-109c0,0,32-101,105-23,0,0,109-45,104,72,0,0,58,80-37,81,0,0-41,84-106,32C137,217.07,44,294.07,15,164.07Z"/><path class="cls-1" d="M51,130.07s18,24,41,17c0,0,2,4,21-17"/><path class="cls-1" d="M164,121.07s14,15,44,9c0,0,2,2,21-20"/><line class="cls-1" x1="59.01" y1="159.07" x2="67.74" y2="144.15"/><line class="cls-1" x1="99.01" y1="159.07" x2="92.01" y2="148.07"/><line class="cls-1" x1="177.01" y1="148.07" x2="181.8" y2="130.07"/><line class="cls-1" x1="221.01" y1="144.07" x2="208.01" y2="130.07"/></g></g></svg>