<?xml version="1.0" encoding="utf-8"?>
<!-- Generator: Adobe Illustrator 25.1.0, SVG Export Plug-In . SVG Version: 6.00 Build 0)  -->
<svg version="1.1" id="Layer_1" xmlns="http://www.w3.org/2000/svg" xmlns:xlink="http://www.w3.org/1999/xlink" x="0px" y="0px"
	 viewBox="0 0 48 48" style="enable-background:new 0 0 48 48;" xml:space="preserve">
<style type="text/css">
	.st0{fill:none;}
	.st1{fill:#D17D20;}
	.st2{fill:none;stroke:#D17D20;stroke-width:0.5;stroke-miterlimit:10;}
	.st3{fill:none;stroke:#FFDF61;stroke-miterlimit:10;}
	.st4{fill:#FFDF61;}
</style>
<rect class="st0" width="48" height="48"/>
<g>
	<path class="st1" d="M41.9,62.7c-0.4-0.8-1-1.5-1.8-2c-1.3-0.9-3-1.2-4.5-0.8c-1.8,0.5-3.2,1.9-4.9,2.8c-3.7,2.2-8.3,2.3-12.5,1.1
		c-4.1-1.2-7.8-3.6-11.2-6.2c-2.3-1.7-4.5-3.5-6.2-5.7c0.2,0.1,0,0.8,0,0.9c-0.1,0.3-0.1,0.6-0.2,0.9c-0.1,0.4-0.3,1-0.2,1.5
		c0.3,0.9,0.9,1.7,1.5,2.4c1.2,1.5,2.7,2.8,4.3,3.8C7.1,62,8,62.6,9,63.1c2.4,1.3,4.9,2.5,7.4,3.6c-0.5,2.2-0.2,4.6,0.5,6.8
		c0.6,1.8,1.6,3.6,3.1,4.9c1.2,1,2.6,1.5,4.1,1.8c3.7,0.8,7.7-0.1,10.5-2.5c2-1.7,3.3-4,4.8-6C42,68.4,42.2,63.3,41.9,62.7z
		 M38.2,64.5c-0.5,0-0.9-0.4-0.9-0.9s0.4-0.9,0.9-0.9s0.9,0.4,0.9,0.9S38.7,64.5,38.2,64.5z"/>
	<path class="st2" d="M23.3,79.1c0,3,0,6.1,0,9.1"/>
	<path class="st2" d="M29.4,77.9c0,3.1,0,4.8,0,7.9c0.5-0.1,0.9,0.1,1.4,0.3c0.6,0.2,1.2,0.4,1.7,0.7"/>
	<path class="st2" d="M26.4,86.3c1-0.2,2-0.7,3.1-0.7"/>
	<path class="st2" d="M29.2,86.1"/>
	<path class="st2" d="M25.5,88.4"/>
	<path class="st2" d="M29,85.7c0.1,0.1,0.2,0.1,0.3,0.2c0.8,0.5,1.5,1.3,1.9,2.1"/>
	<path class="st2" d="M20.4,89.4c0.9-0.5,1.9-1,2.9-1.4c0.2-0.1,0.6,0.2,0.8,0.3c0.9,0.3,1.8,0.8,2.7,1.3"/>
	<path class="st2" d="M23.1,88.2c0.1,0,0.2,0.1,0.3,0.1c0.5,0.6,1,1.2,1.5,1.8"/>
	<polygon class="st1" points="41.4,62.7 46.7,64.7 41.4,65.9 	"/>
</g>
<path class="st3" d="M19.3,22.3c1.7,0.9,4,1.9,5.5,0.6c0.6,0.7,1.7,0.8,2.6,0.8c5.3-0.1,10.6-0.2,15.9-0.3c0.3,0.6-0.6,1.1-1.3,1.1
	c-4.9,0.3-9.7,1.2-14.4,2.7C26.3,27.5,25,28,24.1,29c-0.8,1-1.5,2.5-2.8,2.5c-1,0-1.7-1-2-1.9s-0.4-2-0.9-2.8c-0.4-0.6-1-1-1.7-1.4
	C12.2,22.7,7.2,21,2,20.5c0.1,0,0.5-0.4,0.5-0.4C2.8,20,3,19.9,3.3,19.8c0.4-0.1,0.9-0.1,1.3-0.1c1.1-0.1,2.2-0.2,3.4-0.2
	c2.5,0,4.9,0.4,7.3,1.1C16.8,21.1,18,21.6,19.3,22.3z"/>
<path class="st3" d="M38.8,34.2c1.5-0.7,3-1.5,4.4-2.2c-0.4,0.9-1.3,1.4-2.2,1.9c-1.9,1.1-3.8,2.1-5.7,3.2c-1.5,0.8-3,1.7-3.8,3.2
	c-0.3,0.5-0.5,1.1-0.8,1.5c-1,1.1-2.7,0.9-4.1,0.6c0.6-0.5,0.2-1.6-0.4-1.9c-0.7-0.4-1.5-0.2-2.3-0.2c-2.8,0.3-5.6,0.2-8.4-0.4
	c0.8-0.1,1.6-0.3,2.4-0.4c0.6-0.1,1.2,0,1.9,0.1c1.6,0.2,3.2,0.1,4.8-0.1c3.2-0.5,6.3-1.6,9.3-2.9C35.6,35.8,37.2,35,38.8,34.2z"/>
<path class="st3" d="M13.1,9.8c2.1-1,4.3-2,6.6-1.7c5.3,0.6,7.9,7.2,13,8.7c0.1-1-0.5-1.8-1-2.6c-0.6-0.8-1.1-1.7-0.8-2.7
	c0.3-0.9,1.8-1.3,2.2-0.4c4.1-1.6,9-1.2,12.8,1c-1.8-2.3-3.9-4.5-6.6-5.7s-5.9-1.6-8.5-0.3c-1,0.5-2,1.3-3.1,1.4
	c-1.2,0.2-2.4-0.3-3.4-1.1c-0.5-0.4-1-0.8-1.4-1.3c-0.3-0.4-0.6-0.6-1.1-0.6c-2.3-0.1-4.6,0.8-6.3,2.3c-0.5,0.4-0.9,0.9-1.3,1.4
	C14,8.5,13.8,8.7,13.7,9C13.4,9.1,13.2,9.8,13.1,9.8z"/>
<path class="st4" d="M42.9,9.7c-0.3-0.5-0.6-0.9-0.8-1.4c-0.2-0.3-0.7-0.3-0.9,0c-0.1,0.1-0.1,0.2-0.1,0.2c-0.4-0.8-0.9-1.5-1.4-2.2
	c-0.3-0.4-0.8,0-0.9,0.4c0,0.3,0,0.6,0,0.8c-0.4-0.7-0.8-1.4-1.3-2c-0.3-0.4-1-0.3-0.9,0.3c0.1,0.6,0.1,1.1,0.2,1.7
	c-0.4-0.6-0.8-1.3-1.2-1.9c-0.3-0.5-1-0.2-0.9,0.3c-0.1-0.2-0.3-0.4-0.4-0.6c-0.3-0.4-1.1-0.2-0.9,0.4c0.2,0.6,0.3,1.2,0.5,1.8
	c-0.5-0.6-0.9-1.2-1.5-1.8c-0.3-0.4-1,0-0.8,0.5c0.3,0.7,0.5,1.4,0.7,2.1c-0.3-0.5-0.6-1.1-0.9-1.6c-0.3-0.5-1-0.1-0.9,0.4
	c0.1,0.3,0.1,0.6,0.1,0.8c-0.2-0.5-0.4-1-0.5-1.5c-0.2-0.6-1.1-0.4-1,0.3c0.1,0.7,0.2,1.5,0.2,2.4c-0.3-0.8-0.7-1.5-1-2.3
	c-0.3-0.6-1-0.1-0.9,0.4c0,0.1,0,0.2,0.1,0.3c-0.2,0-0.5,0.2-0.6,0.4c0,0,0,0,0,0c-0.1,0-0.3,0-0.4,0c-0.1-0.2-0.4-0.3-0.6-0.2
	c-0.1-0.2-0.2-0.4-0.5-0.4c-0.2-0.2-0.5-0.2-0.7,0c0,0,0,0-0.1,0.1c-0.2-0.2-0.4-0.2-0.6-0.1c-0.1,0.1-0.2,0.2-0.4,0.3
	c0-0.1,0.1-0.2,0.1-0.3c0.2-0.4-0.2-1-0.7-0.7l-0.4,0.3C23,6.6,23.1,6.3,23.2,6c0.2-0.4-0.4-0.8-0.7-0.6c-0.2,0.1-0.3,0.2-0.4,0.4
	c0-0.1,0.1-0.1,0.1-0.2c0.2-0.5-0.3-1-0.7-0.6c0-0.4-0.5-0.6-0.9-0.3c-0.3,0.3-0.6,0.6-0.9,0.9c-0.2-0.2-0.5-0.3-0.8-0.1
	c-0.6,0.5-1.2,1-1.7,1.6c0-0.1,0-0.2,0-0.3c0-0.4-0.4-0.6-0.8-0.4c-0.7,0.4-1.2,0.9-1.7,1.4c-0.2,0.1-0.3,0.2-0.3,0.5v1.2
	c-0.4,0-0.7,0-1.1,0c-0.6-0.1-0.6,0.9,0,1c0.2,0,0.5,0,0.7,0c0.1,0.1,0.2,0.1,0.3,0.1c0.2,0,0.3-0.1,0.3-0.2c0.1,0,0.1,0,0.2,0
	c0,0,0,0,0,0c0,0,0,0,0,0c0.7-0.1,1.3-0.2,2-0.4c0.2,0.1,0.5,0.1,0.6-0.2c0,0,0-0.1,0.1-0.1c0.2-0.1,0.4-0.2,0.6-0.3
	c0.1,0.1,0.2,0.1,0.3,0.1c0.2,0,0.4-0.1,0.4-0.3c0,0,0,0,0.1,0c0.3-0.1,0.5-0.1,0.8,0c0,0,0.1,0,0.1,0c0,0,0,0,0.1,0
	c0.4,0,0.7,0.1,1.1,0.3c0.6,0.2,1.2,0.6,1.8,0.8c0.5,0.3,1.1,0.4,1.7,0.7c1.3,0.5,2.2,1.6,3,2.7c0.2,0.3,0.5,0.3,0.7,0.1
	c0.3,0.6,0.7,1.2,1.3,1.7c0.4,0.3,1,0,0.8-0.5c0-0.1,0-0.1-0.1-0.2c0.3,0.6,0.7,1.1,1.3,1.5c0.4,0.3,1-0.1,0.8-0.6L31.2,13
	c0.2-0.2,0.4-0.3,0.6-0.5c0,0,0.1,0,0.1-0.1c0,0,0,0,0,0c0.1,0,0.1-0.1,0.2-0.1c0.1-0.1,0.2-0.2,0.3-0.2c0.2-0.1,0.5-0.3,0.7-0.4
	c0.1-0.1,0.2-0.1,0.4-0.2c0.1,0,0.1-0.1,0.2-0.1c0,0,0,0,0,0c0,0,0,0,0,0c0,0,0.1,0,0.1,0c0.2-0.1,0.4-0.3,0.3-0.6
	c0-0.1-0.2-0.3-0.3-0.3c-0.1-0.6-0.2-1.2-0.4-1.8c0.5,0.6,0.9,1.2,1.3,1.9c0.3,0.5,1.1,0.2,0.9-0.4c-0.2-0.6-0.3-1.2-0.5-1.8
	c0.4,0.5,0.8,1.1,1.2,1.6c0.3,0.4,0.8,0.2,0.9-0.1c0.1,0.1,0.2,0.3,0.3,0.4c0.3,0.4,1,0,0.8-0.5c-0.2-0.5-0.3-1-0.4-1.5
	c0.4,0.7,0.7,1.3,1,2c0.2,0.4,1,0.2,0.9-0.3c-0.1-0.5-0.1-1-0.1-1.5c0.4,0.6,0.7,1.3,1,1.9c0.2,0.5,1,0.2,0.9-0.3c0-0.1,0-0.2,0-0.2
	c0.3,0.5,0.6,0.9,0.9,1.4c0.3,0.4,0.9,0.3,0.9-0.3c0-0.3,0-0.5,0.2-0.7C44,9.6,43.3,9.4,42.9,9.7z M15.7,9C15.7,9,15.7,9,15.7,9
	c-0.1,0-0.2,0-0.2,0c0,0,0,0-0.1,0V8.4c0.2-0.2,0.4-0.5,0.6-0.7C16,8.2,15.9,8.6,15.7,9z M30.4,11.4c0-0.5-0.1-0.9-0.1-1.4
	c0.2,0.6,0.5,1.1,0.7,1.6c0,0,0.1,0.1,0.1,0.1c-0.1,0.1-0.3,0.2-0.4,0.4C30.6,11.8,30.5,11.6,30.4,11.4z M32,11.1
	c0-0.5-0.1-1.1-0.1-1.6c0.3,0.4,0.6,0.8,0.8,1.2C32.5,10.8,32.2,11,32,11.1z"/>
<g>
	<path class="st4" d="M21.3,25.5C21.3,25.5,21.3,25.5,21.3,25.5C21.3,25.5,21.3,25.4,21.3,25.5C21.3,25.4,21.3,25.4,21.3,25.5z"/>
	<path class="st4" d="M40.7,23.9c-1-0.1-2-0.1-3.1-0.2c-0.5,0-1,0.1-1.4,0.2c0,0,0-0.1,0-0.1c-0.1-0.3-0.5-0.5-0.7-0.3
		c-0.4,0.2-0.7,0.5-1,0.7c0,0,0,0-0.1,0c-0.2,0-0.4-0.1-0.5,0c-0.1,0-0.1,0-0.2,0.1c0-0.2-0.1-0.5-0.2-0.7c-0.1-0.3-0.6-0.5-0.8-0.2
		c-0.2,0.2-0.4,0.4-0.5,0.6c-0.1-0.1-0.2-0.2-0.4-0.2c-0.9,0-1.7-0.1-2.6-0.3c0.1-0.5-0.6-0.8-0.9-0.3l-0.1,0.1
		c-0.2,0-0.4-0.1-0.6-0.1c-0.2-0.1-0.4-0.1-0.6-0.2c0-0.1,0-0.2,0.1-0.3c0.2-0.6-0.6-0.8-0.9-0.4c-0.1,0.1-0.1,0.2-0.2,0.3
		c0,0-0.1,0-0.1,0c-0.1-0.3-0.4-0.4-0.7-0.3c-0.2-0.1-0.4-0.1-0.5-0.2c0,0,0,0,0-0.1c0.3-0.6-0.6-1.1-0.9-0.5c0,0.1-0.1,0.2-0.1,0.3
		c-2-0.5-4.1-0.1-6.1-0.2c-0.1-0.3-0.5-0.3-0.8-0.1c0,0,0,0,0,0c-0.2,0-0.4-0.1-0.6-0.2c0-0.2,0.1-0.3,0.1-0.5
		c0.1-0.4-0.4-0.8-0.7-0.6c-0.4,0.3-0.8,0.6-1.1,0.9c0.1-0.2,0.1-0.3,0.2-0.5c0.1-0.5-0.4-0.7-0.7-0.6c-0.4,0.2-0.7,0.4-1,0.6
		c0-0.2,0-0.3,0-0.5c0-0.3-0.4-0.7-0.8-0.4c-0.4,0.3-0.7,0.6-1,0.9c0-0.2,0-0.4-0.1-0.6c0-0.4-0.5-0.7-0.9-0.4
		c-0.1,0.1-0.3,0.3-0.4,0.4c0-0.1,0-0.1,0-0.2c0-0.4-0.5-0.6-0.8-0.4c-0.3,0.2-0.6,0.5-0.9,0.7c-0.1,0-0.1,0-0.2,0
		c-0.6,0-1.1,0-1.7,0c-0.6,0-0.6,1,0,1c0.3,0,0.6,0,1,0l-0.1,0.3c-0.2,0.5,0.6,0.8,0.9,0.4c0.2-0.3,0.5-0.6,0.7-0.9
		c0,0.3,0.1,0.5,0.2,0.8c0.2,0.5,0.8,0.5,1,0c0-0.1,0.1-0.2,0.1-0.3l0.1,0.7c0,0.4,0.7,0.7,0.9,0.3c0.2-0.4,0.5-0.8,0.8-1.2
		c0,0.2,0,0.4,0,0.5c0,0.5,0.6,0.6,0.9,0.3c0.1-0.1,0.2-0.2,0.3-0.3c-0.1,0.4-0.2,0.7-0.3,1.1c-0.1,0.5,0.5,0.9,0.8,0.5
		c0.4-0.5,0.8-0.9,1.3-1.4c-0.2,0.6-0.3,1.3-0.5,1.9c-0.1,0.6,0.6,0.8,0.9,0.4c0.3-0.4,0.7-0.8,1-1.2c-0.1,0.6-0.2,1.2-0.2,1.9
		c0,0.5,0.7,0.7,0.9,0.3c0.3-0.5,0.5-1,0.9-1.5c0,0.8-0.1,1.7-0.1,2.5c0,0.5,0.7,0.7,0.9,0.3c0.4-0.7,0.9-1.3,1.4-1.9
		c-0.7,2-1,4.1-1.1,6.2c0,0.5,0.7,0.7,0.9,0.3c0.2-0.4,0.4-0.9,0.7-1.3c0,0.1-0.1,0.3-0.1,0.4c-0.2,0.6,0.7,0.8,1,0.3
		c0.4-0.9,0.8-1.9,1.3-2.8c-0.4,0.9-0.7,1.9-1.1,2.8c-0.2,0.6,0.7,0.9,1,0.3c0.7-1.8,1.6-3.5,2.6-5.2c-0.2,0.8-0.3,1.6-0.4,2.4
		c0,0.5,0.7,0.6,0.9,0.3c0.6-0.8,1.2-1.6,1.8-2.4c0,0.3,0,0.5,0,0.8c0,0.6,1,0.6,1,0c0,0,0,0,0,0c0.1-0.2,0.3-0.3,0.4-0.5
		c0,0.2-0.1,0.4-0.1,0.6c-0.1,0.5,0.5,0.9,0.8,0.5c0.3-0.4,0.7-0.7,1-1.1c0.2,0.3,0.5,0.4,0.7,0.1c0.4-0.5,0.8-0.9,1.3-1.4
		c0,0.1,0,0.1,0,0.2c0,0.3,0.2,0.5,0.5,0.5c0.2,0,0.3,0,0.5-0.1c0.3-0.1,0.2-0.1,0.2-0.5c0,0.4,0.5,0.6,0.9,0.4
		c0.2-0.2,0.4-0.4,0.7-0.5c0,0,0,0,0,0.1c0.1,0.4,0.6,0.5,0.8,0.2c0.5-0.5,1.4-0.4,2-0.3c0.8,0,1.6,0.1,2.4,0.1
		C41.3,24.9,41.3,23.9,40.7,23.9z M18.8,24.5c0-0.7,0.1-1.3,0.1-2c0.8,0,1.6-0.1,2.4,0c0,0,0,0.1-0.1,0.1c-0.1,0-0.2,0-0.3,0.1
		C20.1,23.1,19.4,23.8,18.8,24.5z M20.2,28.1c0.2-1.1,0.4-2.1,0.7-3.1c0,0,0,0,0,0c0,0,0.1,0.1,0.1,0.1c0,0,0,0,0,0c0,0,0,0,0,0.1
		c0,0.1,0.1,0.1,0.1,0.2c0,0,0,0.1,0.1,0.1c0,0,0,0,0,0c0,0,0,0,0,0c0,0,0,0,0,0c0,0,0,0,0,0c0,0,0,0.1,0,0.1c0,0.1,0,0.2,0.1,0.3
		C21,26.6,20.6,27.4,20.2,28.1z M22.3,22.9C22.3,22.9,22.3,22.9,22.3,22.9C22.3,22.9,22.3,22.9,22.3,22.9c0,0.3-0.1,0.5-0.2,0.7
		c0,0.1-0.1,0.2-0.1,0.3c0,0,0,0,0,0c0,0,0,0,0,0.1c0,0.1-0.1,0.1-0.1,0.2c0,0.1-0.1,0.1-0.1,0.2c-0.1-0.1-0.2-0.2-0.3-0.3
		c0,0,0,0-0.1,0c0.1-0.1,0.1-0.2,0.2-0.3c0.2-0.4,0.4-0.7,0.6-1c0-0.1,0.1-0.1,0.1-0.2c0,0,0,0,0,0c0,0.1,0,0.1,0,0.2
		C22.3,22.8,22.3,22.8,22.3,22.9z M26.6,23.9c0.3,0.1,0.6,0.2,0.8,0.3c0,0,0,0,0,0c-0.5,0.6-0.9,1.3-1.4,1.9
		C26.2,25.3,26.4,24.6,26.6,23.9z"/>
</g>
<path class="st4" d="M34.4,36.3c-0.2,0.2-0.4,0.5-0.7,0.7c-0.2,0.2-0.3,0.5-0.6,0.4c-0.3-0.1-0.5-0.2-0.8-0.2c-0.1,0-0.3,0-0.4,0
	c-0.3-0.1-0.7,0-0.8,0.4c-0.2,0-0.3,0-0.5,0.1c-0.3,0.3-0.5,0.6-0.8,0.9c0,0,0,0,0,0c-0.4-0.4-0.9,0-0.8,0.5c0,0.2,0,0.3,0.1,0.5
	c-0.1,0.1-0.2,0.2-0.3,0.4c-0.3-0.3-0.6-0.6-0.9-0.9c-0.1-0.1-0.4-0.2-0.6-0.1c-0.5,0.4-0.4,1,0,1.4c0.1,0.2,0.3,0.4,0.4,0.5
	c-0.3-0.3-0.6-0.7-0.9-1.1c-0.3-0.6-1.2,0-0.9,0.5c0.6,1,1.4,1.7,2.3,2.3c0.3,0.2,0.7-0.1,0.8-0.4c0-0.2,0-0.5-0.1-0.7
	c0.2,0.2,0.4,0.4,0.6,0.6c0.3,0.3,0.9,0.1,0.9-0.4c0-0.6-0.1-1.1-0.1-1.7c0.8,0.5,1.8,0.8,2-0.2c0.1-0.4,0.1-0.7,0.1-1.1
	c0-0.2,0-0.3,0.1-0.5c0.2,0,0.3,0,0.5,0.1c0.3,0.1,0.5,0.2,0.8,0.1c0.3-0.1,0.5-0.4,0.7-0.6c0.3-0.3,0.5-0.5,0.8-0.8
	C35.6,36.5,34.9,35.8,34.4,36.3z"/>
</svg>
