<?xml version="1.0" encoding="utf-8"?>
<!-- Generator: Adobe Illustrator 25.1.0, SVG Export Plug-In . SVG Version: 6.00 Build 0)  -->
<svg version="1.1" id="Layer_1" xmlns="http://www.w3.org/2000/svg" xmlns:xlink="http://www.w3.org/1999/xlink" x="0px" y="0px"
	 viewBox="0 0 48 48" style="enable-background:new 0 0 48 48;" xml:space="preserve">
<style type="text/css">
	.st0{fill:none;}
	.st1{fill:#FFEA61;}
	.st2{fill:none;stroke:#FFEA61;stroke-miterlimit:10;}
	.st3{fill:none;stroke:#FFEA61;stroke-width:0.5;stroke-miterlimit:10;}
</style>
<rect class="st0" width="48" height="48"/>
<circle class="st1" cx="120" cy="48" r="1.8"/>
<circle class="st1" cx="136.4" cy="48" r="1.8"/>
<path class="st1" d="M142.2,49.2c0.1-0.4,0.1-0.8,0.1-1.2c0-3.3-2.6-5.9-5.9-5.9c-1.7,0-3.3,0.7-4.3,1.9c-1.4-0.2-2.9-0.4-4.4-0.4
	c-1.2,0-2.4,0.1-3.5,0.3c-1.1-1.1-2.6-1.8-4.2-1.8c-3.3,0-5.9,2.6-5.9,5.9c0,0.1,0,0.2,0,0.3c-2.8,2.4-4.5,5.6-4.5,9.1
	c0,7.6,8.1,13.8,18.1,13.8s18.1-6.2,18.1-13.8C145.8,54.3,144.4,51.5,142.2,49.2z M120,43.3c2.6,0,4.7,2.1,4.7,4.7s-2.1,4.7-4.7,4.7
	s-4.7-2.1-4.7-4.7S117.4,43.3,120,43.3z M131.9,70c-3.3,0.8-6.7,0.6-9.9-0.5c-3-1-5.6-2.7-8.1-4.6c1.1,0.2,2.1,0.3,3.3,0.3
	c7.8,0,15.6,0,23.3,0C138.2,67.6,135.1,69.3,131.9,70z M136.4,52.7c-2.6,0-4.7-2.1-4.7-4.7c0-2.6,2.1-4.7,4.7-4.7
	c2.6,0,4.7,2.1,4.7,4.7C141.1,50.6,139,52.7,136.4,52.7z"/>
<ellipse class="st2" cx="24.2" cy="24.9" rx="5.8" ry="13.5"/>
<path class="st3" d="M9.6,9.2c0.5,0.8,1.1,1.6,1.8,2.2c0.3,0.2,0.6,0.5,0.9,0.3c-0.4-1-0.6-2.1-0.7-3.3c0.1,1.1,0.3,2.2,0.6,3.2
	c0.6-0.2,0.8-0.8,1.1-1.4C13.5,9.6,13.8,9,14,8.4"/>
<circle class="st1" cx="9.3" cy="8.8" r="0.8"/>
<circle class="st1" cx="11.5" cy="8.1" r="0.8"/>
<circle class="st1" cx="13.9" cy="8.3" r="0.8"/>
<path class="st3" d="M34.4,9c0.2,0.9,0.6,1.8,1.2,2.6c0.2,0.3,0.5,0.6,0.8,0.6c-0.1-1.1-0.1-2.2,0.1-3.3c-0.2,1.1-0.2,2.2-0.2,3.3
	c0.6-0.1,1-0.6,1.4-1.1s0.7-1,1.1-1.6"/>
<circle class="st1" cx="34.3" cy="8.6" r="0.8"/>
<circle class="st1" cx="36.6" cy="8.4" r="0.8"/>
<circle class="st1" cx="38.9" cy="9.2" r="0.8"/>
<path class="st3" d="M42,34.1c-0.7,0.7-1.2,1.5-1.6,2.4c-0.1,0.3-0.2,0.7,0,1c0.9-0.7,1.8-1.3,2.9-1.7c-1,0.4-2,1-2.9,1.6
	c0.4,0.5,1,0.5,1.6,0.6c0.6,0,1.3,0.1,1.9,0.1"/>
<circle class="st1" cx="42.3" cy="33.7" r="0.8"/>
<circle class="st1" cx="43.7" cy="35.6" r="0.8"/>
<circle class="st1" cx="44.3" cy="37.9" r="0.8"/>
<path class="st3" d="M4.1,38c1,0.1,1.9,0.1,2.9-0.1c0.3-0.1,0.7-0.2,0.8-0.5c-1.1-0.3-2.1-0.8-3-1.4c0.9,0.6,1.9,1,3,1.4
	c0.2-0.6-0.2-1.2-0.5-1.7s-0.7-1.1-1-1.6"/>
<circle class="st1" cx="3.7" cy="37.9" r="0.8"/>
<circle class="st1" cx="4.4" cy="35.7" r="0.8"/>
<circle class="st1" cx="5.9" cy="33.9" r="0.8"/>
<path class="st1" d="M40.4,36.2c-2,0.6-4.1,1.2-6.2,1.6c0.2-1.6,0.4-3.2,0.7-4.8c0.1-0.7,0.2-1.5-0.4-2c-0.4-0.4-1-0.5-1.6-0.5
	c-0.8-0.1-1.6,0-2.4,0.3c0-0.1-0.1-0.3-0.3-0.3c-0.9-0.2-1.8-0.3-2.7-0.4c0.5-0.1,0.9-0.1,1.4-0.2c0.5-0.1,0.4-0.7,0.1-0.9
	c0.3,0,0.6-0.1,1-0.1c0.6-0.1,0.6-0.9,0-1c-0.2,0-0.5,0-0.7-0.1c0.5-0.1,1.1-0.1,1.6-0.2c0.6-0.1,0.7-1,0-1c-1.7,0-3.5-0.1-5.2-0.1
	c1.5-0.2,3.1-0.4,4.6-0.5c0.5-0.1,0.7-0.9,0.1-1c0,0-0.1,0-0.1,0l0,0c0,0,0,0,0,0c-0.1,0-0.3,0-0.4,0c0.4-0.1,0.8-0.1,1.2-0.2
	c0.5-0.1,0.5-0.9,0-1c-1.2-0.2-2.3-0.3-3.5-0.4c1-0.1,2-0.3,3-0.4c0.3,0,0.5-0.3,0.5-0.6c0.5,0.3,1.1,0.6,1.7,0.8
	c0.4,0.1,0.8,0.3,1.1,0c0.2-0.1,0.3-0.3,0.3-0.5c1.5-3.4,2.5-7,2.9-10.7c-0.4-0.2-0.9-0.3-1.3-0.5c-0.5,2.6-1.2,5.1-2.3,7.6
	c-0.1,0.3-0.3,0.5-0.5,0.7c-0.3,0.2-0.7,0.1-1,0c-0.4-0.1-0.9-0.3-1.3-0.4c-0.1-0.1-0.2-0.3-0.4-0.3c-0.1,0-0.2,0-0.3,0
	c-0.3-0.1-0.5-0.2-0.8-0.4c0.2-0.1,0.2-0.2,0.3-0.3c0.1-0.2,0.2-0.4,0.1-0.6c-0.3-0.5-0.6-1-0.9-1.4c0.4-0.2,0.2-0.9-0.3-0.9
	c-0.1,0-0.3,0-0.4,0c0.7-0.3,1.3-1,1.3-1.8c0-1-0.9-1.9-1.9-1.9c-0.6,0-1.2,0.3-1.5,0.8c0-0.1-0.1-0.3-0.2-0.3
	c-0.4-0.2-0.7-0.3-1.1-0.5c-0.1,0-0.1,0-0.2,0c-0.2-0.3-0.5-0.4-0.8-0.1c-0.3,0.3-0.5,0.6-0.7,0.9c-0.3-0.4-0.9-0.7-1.4-0.7
	c-1,0-1.9,0.9-1.9,1.9c0,0.8,0.5,1.5,1.2,1.8c-0.2,0.2-0.3,0.5-0.5,0.7c-0.1,0.1-0.1,0.2-0.1,0.3c-0.3,0.2-0.4,0.6-0.1,0.8
	c-0.1,0-0.1,0-0.2,0c-0.7,0-0.6,0.9,0,1c0.3,0,0.7,0.1,1,0.1c0.1,0.2,0.2,0.3,0.4,0.3h1.3c-0.7,0.1-1.3,0.2-2,0.3
	c0-0.2-0.1-0.4-0.3-0.5l0,0c0,0,0,0,0,0c-0.1,0-0.1,0-0.2,0c-0.3,0-0.4,0.2-0.5,0.3c-0.8,0.4-1.7,0.7-2.5,1c-0.3,0.1-0.7,0.2-1,0
	c-0.2-0.2-0.4-0.4-0.5-0.7c-1.1-2.5-1.8-5-2.3-7.6c-0.4,0.2-0.9,0.3-1.3,0.5c0.4,3.7,1.4,7.3,2.9,10.7c0,0.2,0.1,0.4,0.3,0.5
	c0.3,0.3,0.7,0.1,1.1,0c0.4-0.1,0.7-0.3,1.1-0.4c0.1,0.1,0.2,0.2,0.4,0.2c2.2-0.1,4.4-0.1,6.6,0c-2.1,0.3-4.1,0.5-6.2,0.8
	c-0.6,0.1-0.7,1,0,1c2.8-0.2,5.6-0.4,8.4-0.3c-2.7,0.3-5.4,0.6-8.1,0.7c-0.6,0-0.6,1,0,1c1.8-0.1,3.6-0.2,5.4-0.3
	c-1.8,0.2-3.6,0.4-5.5,0.6c-0.6,0.1-0.7,1,0,1c1.8,0,3.7,0.1,5.5,0.1c-1.6,0.2-3.2,0.4-4.8,0.6c0,0,0,0,0,0c0,0-0.1,0-0.1,0
	c-0.4,0.1-0.4,0.6-0.2,0.9c-0.3,0.3-0.2,0.9,0.3,0.9c1.6-0.2,3.2-0.2,4.8-0.2c-0.7,0.1-1.3,0.1-2,0.2c-1,0-2,0.1-3,0.1
	c-0.6,0.1-0.7,1,0,1c1,0,2-0.1,3-0.1c1.2,0,2.4,0,3.7,0.1c-2,0.2-4,0.5-6,0.8l-0.1-0.2c-1.2-0.7-2.6-1-4-0.9c-0.6,0-1.2,0.1-1.6,0.5
	c-0.6,0.5-0.5,1.3-0.4,2c0.3,1.6,0.5,3.2,0.7,4.8c-2.1-0.4-4.2-1-6.2-1.6c-0.3,0.6-0.6,1.2-0.9,1.8c1.9,0.7,3.8,1.4,5.7,2.1
	c1.2,0.4,2.6,0.8,3.6,0.1c0.9-0.7,0.8-1.9,0.6-2.9c-0.2-1.2-0.4-2.5-0.6-3.7c1.9,0.8,3.6,1.7,5.1,2.9c-0.1,0.3,0,0.7,0.4,0.7
	c0.1,0,0.3,0,0.4,0c0.1,0.1,0.2,0.2,0.3,0.2c-0.1,0.3,0.1,0.6,0.5,0.6c0.9,0,1.7-0.2,2.5-0.4l-0.2,0.3c0.2-0.2,0.4-0.3,0.5-0.4
	c0.1,0,0.2-0.1,0.3-0.1c0.2-0.1,0.3-0.2,0.3-0.4c1.7-1.3,3.6-2.5,5.7-3.3c-0.2,1.2-0.4,2.5-0.6,3.7c-0.2,1-0.3,2.2,0.6,2.9
	c1,0.7,2.4,0.3,3.6-0.1c1.9-0.7,3.8-1.4,5.7-2.1C41,37.4,40.7,36.8,40.4,36.2z M18.8,21.7c0.2-0.1,0.4-0.3,0.6-0.4l0.1-0.3
	c0.8,0,1.5-0.1,2.3-0.1c1.1,0,2.3-0.1,3.5-0.1C23.1,21.2,20.9,21.5,18.8,21.7z M25.4,21.8c1.3-0.2,2.6-0.4,3.9-0.7l0.1,0.3
	c0.3,0.2,0.6,0.4,0.9,0.6C28.6,21.9,27,21.9,25.4,21.8z M21.9,36l-0.3-0.5c0.7,0,1.4,0,2.1,0C23.1,35.7,22.5,35.9,21.9,36z M21,34.5
	l-0.4-0.8c1.1,0,2.1,0.1,3.2,0.2C22.8,34.1,21.9,34.3,21,34.5z M26.8,35c-0.5-0.1-1.1-0.2-1.6-0.3c0.6-0.1,1.3-0.2,1.9-0.3L26.8,35z
	 M27.7,33.5c-0.1,0-0.1-0.1-0.2-0.1c-0.6-0.1-1.1-0.2-1.7-0.3c0.7-0.1,1.5-0.1,2.2-0.2L27.7,33.5z M28.6,32
	C28.6,31.9,28.5,31.9,28.6,32c-1.2,0-2.4-0.1-3.5-0.1c1.3-0.1,2.5-0.2,3.8-0.3L28.6,32z"/>
</svg>
