<?xml version="1.0" encoding="utf-8"?>
<!-- Generator: Adobe Illustrator 25.1.0, SVG Export Plug-In . SVG Version: 6.00 Build 0)  -->
<svg version="1.1" id="Layer_1" xmlns="http://www.w3.org/2000/svg" xmlns:xlink="http://www.w3.org/1999/xlink" x="0px" y="0px"
	 viewBox="0 0 48 48" style="enable-background:new 0 0 48 48;" xml:space="preserve">
<style type="text/css">
	.st0{fill:none;}
	.st1{fill:#FFEA61;}
	.st2{fill:none;stroke:#FFEA61;stroke-width:0.5;stroke-miterlimit:10;}
</style>
<rect class="st0" width="48" height="48"/>
<circle class="st1" cx="120" cy="48" r="1.8"/>
<circle class="st1" cx="136.4" cy="48" r="1.8"/>
<path class="st1" d="M142.2,49.2c0.1-0.4,0.1-0.8,0.1-1.2c0-3.3-2.6-5.9-5.9-5.9c-1.7,0-3.3,0.7-4.3,1.9c-1.4-0.2-2.9-0.4-4.4-0.4
	c-1.2,0-2.4,0.1-3.5,0.3c-1.1-1.1-2.6-1.8-4.2-1.8c-3.3,0-5.9,2.6-5.9,5.9c0,0.1,0,0.2,0,0.3c-2.8,2.4-4.5,5.6-4.5,9.1
	c0,7.6,8.1,13.8,18.1,13.8s18.1-6.2,18.1-13.8C145.8,54.3,144.4,51.5,142.2,49.2z M120,43.3c2.6,0,4.7,2.1,4.7,4.7s-2.1,4.7-4.7,4.7
	s-4.7-2.1-4.7-4.7S117.4,43.3,120,43.3z M131.9,70c-3.3,0.8-6.7,0.6-9.9-0.5c-3-1-5.6-2.7-8.1-4.6c1.1,0.2,2.1,0.3,3.3,0.3
	c7.8,0,15.6,0,23.3,0C138.2,67.6,135.1,69.3,131.9,70z M136.4,52.7c-2.6,0-4.7-2.1-4.7-4.7c0-2.6,2.1-4.7,4.7-4.7
	c2.6,0,4.7,2.1,4.7,4.7C141.1,50.6,139,52.7,136.4,52.7z"/>
<ellipse class="st1" cx="24.2" cy="24.9" rx="5.8" ry="13.5"/>
<path class="st1" d="M25.1,37.9c2-1.8,4.3-3.2,6.9-4.3c-0.2,1.2-0.4,2.5-0.6,3.7c-0.2,1-0.3,2.2,0.6,2.9c1,0.7,2.4,0.3,3.6-0.1
	c1.9-0.7,3.8-1.4,5.7-2.1c-0.3-0.6-0.6-1.2-0.9-1.8c-2,0.6-4.1,1.2-6.2,1.6c0.2-1.6,0.4-3.2,0.7-4.8c0.1-0.7,0.2-1.5-0.4-2
	c-0.4-0.4-1-0.5-1.6-0.5c-1.4-0.1-2.8,0.2-4,0.9"/>
<path class="st1" d="M29.3,21.4c1,0.7,2.1,1.4,3.3,1.8c0.4,0.1,0.8,0.3,1.1,0c0.2-0.1,0.3-0.3,0.3-0.5c1.5-3.4,2.5-7,2.9-10.7
	c-0.4-0.2-0.9-0.3-1.3-0.5c-0.5,2.6-1.2,5.1-2.3,7.6c-0.1,0.3-0.3,0.5-0.5,0.7c-0.3,0.2-0.7,0.1-1,0c-1.1-0.3-2.2-0.8-3.2-1.3"/>
<path class="st1" d="M19.4,21.3c-1,0.7-2.1,1.4-3.3,1.8c-0.4,0.1-0.8,0.3-1.1,0c-0.2-0.1-0.3-0.3-0.3-0.5c-1.5-3.4-2.5-7-2.9-10.7
	c0.4-0.2,0.9-0.3,1.3-0.5c0.5,2.6,1.2,5.1,2.3,7.6c0.1,0.3,0.3,0.5,0.5,0.7c0.3,0.2,0.7,0.1,1,0c1.1-0.3,2.2-0.8,3.2-1.3"/>
<path class="st1" d="M23,37.9c-2-1.8-4.3-3.2-6.9-4.3c0.2,1.2,0.4,2.5,0.6,3.7c0.2,1,0.3,2.2-0.6,2.9c-1,0.7-2.4,0.3-3.6-0.1
	c-1.9-0.7-3.8-1.4-5.7-2.1c0.3-0.6,0.6-1.2,0.9-1.8c2,0.6,4.1,1.2,6.2,1.6c-0.2-1.6-0.4-3.2-0.7-4.8c-0.1-0.7-0.2-1.5,0.4-2
	c0.4-0.4,1-0.5,1.6-0.5c1.4-0.1,2.8,0.2,4,0.9"/>
<path class="st2" d="M9.6,9.2c0.5,0.8,1.1,1.6,1.8,2.2c0.3,0.2,0.6,0.5,0.9,0.3c-0.4-1-0.6-2.1-0.7-3.3c0.1,1.1,0.3,2.2,0.6,3.2
	c0.6-0.2,0.8-0.8,1.1-1.4C13.5,9.6,13.8,9,14,8.4"/>
<circle class="st1" cx="9.3" cy="8.8" r="0.8"/>
<circle class="st1" cx="11.5" cy="8.1" r="0.8"/>
<circle class="st1" cx="13.9" cy="8.3" r="0.8"/>
<path class="st2" d="M34.4,9c0.2,0.9,0.6,1.8,1.2,2.6c0.2,0.3,0.5,0.6,0.8,0.6c-0.1-1.1-0.1-2.2,0.1-3.3c-0.2,1.1-0.2,2.2-0.2,3.3
	c0.6-0.1,1-0.6,1.4-1.1s0.7-1,1.1-1.6"/>
<circle class="st1" cx="34.3" cy="8.6" r="0.8"/>
<circle class="st1" cx="36.6" cy="8.4" r="0.8"/>
<circle class="st1" cx="38.9" cy="9.2" r="0.8"/>
<path class="st2" d="M42,34.1c-0.7,0.7-1.2,1.5-1.6,2.4c-0.1,0.3-0.2,0.7,0,1c0.9-0.7,1.8-1.3,2.9-1.7c-1,0.4-2,1-2.9,1.6
	c0.4,0.5,1,0.5,1.6,0.6c0.6,0,1.3,0.1,1.9,0.1"/>
<circle class="st1" cx="42.3" cy="33.7" r="0.8"/>
<circle class="st1" cx="43.7" cy="35.6" r="0.8"/>
<circle class="st1" cx="44.3" cy="37.9" r="0.8"/>
<path class="st2" d="M4.1,38c1,0.1,1.9,0.1,2.9-0.1c0.3-0.1,0.7-0.2,0.8-0.5c-1.1-0.3-2.1-0.8-3-1.4c0.9,0.6,1.9,1,3,1.4
	c0.2-0.6-0.2-1.2-0.5-1.7s-0.7-1.1-1-1.6"/>
<circle class="st1" cx="3.7" cy="37.9" r="0.8"/>
<circle class="st1" cx="4.4" cy="35.7" r="0.8"/>
<circle class="st1" cx="5.9" cy="33.9" r="0.8"/>
<circle class="st1" cx="21.2" cy="13.7" r="1.9"/>
<circle class="st1" cx="27.2" cy="13.7" r="1.9"/>
</svg>
