<?xml version="1.0" encoding="utf-8"?>
<!-- Generator: Adobe Illustrator 25.1.0, SVG Export Plug-In . SVG Version: 6.00 Build 0)  -->
<svg version="1.1" id="Layer_1" xmlns="http://www.w3.org/2000/svg" xmlns:xlink="http://www.w3.org/1999/xlink" x="0px" y="0px"
	 viewBox="0 0 48 48" style="enable-background:new 0 0 48 48;" xml:space="preserve">
<style type="text/css">
	.st0{fill:none;}
	.st1{fill:none;stroke:#FFDF61;stroke-linejoin:round;stroke-miterlimit:10;}
	.st2{fill:#FFDF61;}
</style>
<rect class="st0" width="48" height="48"/>
<path class="st1" d="M46,40.1c2.3-3.1-0.9-7.1-4.1-9.2c-3.3-2.2-7.4-3.1-10.9-5.1c-1.4-0.9-4.8-3.2-5.3-4.7c-0.6-1.4,0.5-2.1,2-2.8
	c1-0.5,3.8-0.2,5-0.1c1.1,0.1,2.5,0.1,3.4-0.5c1-0.7,1-2.2-0.1-2.6c-0.6-0.2-1.1-0.2-1.6-0.4c-0.1,0-0.6-0.2-0.7-0.3
	c-0.1-0.1,0-0.5,0-0.6c0-0.1,0.7-0.5,0.7-0.5c0.9-0.5,1.4-0.3,2.3-0.8c-0.1,0.1-0.5,0.1-0.6,0.1c-0.2,0-1.9,0.4-2.1,0.4
	c-0.2,0-1.1,0.3-1.3,0.5c-0.1,0.1-0.3,0.2-0.3,0.4c0,0.1,0,0.2,0.1,0.4c0,0.2,0.1,0.4,0.2,0.5c0.1,0.2,0.7,0.4,0.8,0.4
	c0.2,0,0.4,0,0.4,0.3c0,0.2-0.1,0.4-0.2,0.5c-0.2,0.2-0.4,0.3-0.6,0.4c-0.6,0.2-1.1,0.3-1.7,0.3c-2-0.1-6.5,0-8.3,0.7
	c-1.8,0.8-3.5,1.7-3.4,3.4c0.1,1.4,4,3.1,4.1,4.3c0.1,2.3-2.4,3.7-4.6,4.8c-3.8,1.7-7.5,3.7-11.1,5.6c-1.9,0.9-3.7,2-5.6,2.9
	c-0.4,0.2-1.7,0.8-0.9,1.2c0.4,0.2,1.1,0,1.6,0c0.6,0,1.1,0,1.7,0c4.3,0.1,8.7,0.2,13,0.2s8.7,0.2,13,0.2S45.5,40.1,46,40.1z"/>
<path class="st2" d="M50.9,40.8c-4.2,0-8.4,0.1-12.6,0.1c3-0.1,6-0.1,9.1-0.2c0.5,0,0.6-0.6,0.3-0.9c0.1-0.2,0.1-0.4-0.1-0.5
	c0.3-0.2,0.3-0.7-0.1-0.9c-0.2-0.1-0.4-0.1-0.6-0.1c0-0.1-0.1-0.2-0.1-0.3c0.1,0,0.3-0.1,0.4-0.1c0.6-0.1,0.4-0.9-0.1-1
	c-0.4,0-0.8-0.1-1.2-0.1l0.6-0.1c0.6-0.1,0.4-1-0.1-1c-0.8,0-1.7,0-2.5,0c-0.4,0-0.8,0-1.2,0c0.3-0.1,0.7-0.3,1.1-0.3
	c0.2,0,0.4-0.1,0.5-0.1c0.4,0,0.7,0,1.1,0c0.2,0,0.4-0.1,0.4-0.3c0.1,0,0.2,0,0.3,0c0.2,0,0.5-0.2,0.5-0.4c0-0.2-0.1-0.5-0.4-0.5
	c0,0-0.1,0-0.1,0c0,0,0,0,0,0c0,0,0,0,0,0c-0.4-0.1-0.8-0.1-1.1-0.1c0-0.2,0-0.3-0.1-0.5c0.5-0.2,0.3-1-0.2-1
	c-0.4,0-0.7,0.1-1.1,0.1c-0.1-0.2-0.2-0.3-0.4-0.3c-0.8-0.1-1.5-0.1-2.3-0.2c0.7,0,1.4,0,2.1-0.1c0.5,0,0.7-0.9,0.1-1
	c-3.2-0.4-6.4-0.8-9.5-1.1c1.4-0.1,2.9-0.1,4.3,0.1c0.6,0.1,0.6-0.9,0-1c-1.6-0.1-3.2-0.2-4.8-0.1c0,0-0.1-0.1-0.1-0.1
	c1.2-0.2,2.3-0.3,3.5-0.5c0.6-0.1,0.4-1-0.1-1c-2.7,0-5.5-0.1-8.2-0.1c1.1-0.2,2.3-0.3,3.4-0.5c0.5-0.1,0.5-0.9,0-1
	c-1-0.2-2.3-0.4-3.2-0.9c0.1,0,0.3-0.1,0.4-0.1c0.6-0.1,0.4-1-0.1-1l-1.4,0c-0.2-0.3-0.2-0.7-0.5-1c-0.3-0.3-0.7-0.4-1.1-0.6
	c-0.6-0.2-1.3-0.5-1.9-0.7c0.3-0.1,0.7-0.2,1-0.2c0.6-0.1,0.4-0.9-0.1-1c0.1-0.2,0.1-0.6-0.2-0.7l1.5-0.3c0.3-0.1,0.4-0.3,0.3-0.6
	c3.4-0.4,6.8-0.5,10.2-0.5c0.6,0,0.7-0.8,0.1-1c-0.4-0.1-0.8-0.3-1.2-0.4c0.1,0,0.3,0,0.4-0.1c0,0,0.1,0,0.1-0.1
	c0.1,0,0.1-0.1,0.1-0.1c0.1-0.1,0.1-0.2,0.1-0.3c0-0.1,0-0.2-0.1-0.3c-0.1-0.1-0.2-0.2-0.3-0.2c-0.2-0.1-0.3-0.1-0.5-0.1
	c-0.1,0-0.2,0-0.4,0c-0.1,0-0.1,0-0.2,0c-0.1,0-0.1,0.1-0.2,0.1c0-0.1-0.1-0.2-0.1-0.2c-0.3-0.4-0.7-0.1-0.8,0.3
	c-0.1,0-0.2,0.1-0.3,0.2c-0.1,0.1-0.2,0.2-0.2,0.3c-0.1,0.3,0.1,0.6,0.3,0.8c0,0,0.1,0,0.1,0.1c-2.2,0-4.4,0.2-6.5,0.4
	c-0.1-0.2-0.3-0.5-0.6-0.4c-1.3,0.2-2.7,0.4-4,0.7c-0.3,0-0.4,0.4-0.3,0.6c0,0,0,0,0,0c-0.4,0-0.8,0-1.2,0c-0.3,0-0.5,0.1-0.6,0.3
	c0,0,0,0.1,0,0.1c-1,0.7-2,1.5-2.3,2.8c-0.3,1.3,0.4,2.3,1.4,3.1c0.5,0.4,1,0.7,1.4,1c0.2,0.1,0.8,0.5,0.7,0.8
	c-0.1,0.3-0.5,0.8-0.7,1c-1,1.2-2.1,2.2-3.4,3.1c-0.3,0.2-0.3,0.6,0,0.8c-0.6,0.1-0.6,1,0,1c0.4,0,0.7,0,1.1,0.1
	c-1.7,0.2-3.4,0.4-5.1,0.7c-0.4,0.1-0.5,0.8-0.1,0.9c-0.8,0-1.7-0.1-2.5-0.1c-1,0-1.2,1.1-0.6,1.7c-0.8,0.1-1.6,0.3-2.3,0.4
	c-0.4,0.1-0.4,0.5-0.2,0.8c-0.1,0-0.3,0-0.4,0c-0.6-0.1-0.9,0.7-0.3,1c0.2,0.1,0.5,0.2,0.7,0.2C6.1,38,4.5,38.1,3,38.1
	c-1,0-1.2,1.2-0.7,1.7c-0.6,0-1.1,0-1.7,0c-0.5,0-0.6,0.7-0.3,0.9c-0.1,0-0.1,0-0.2,0c-0.3,0-0.5,0.3-0.5,0.5c-0.8,0-1.5,0-2.3-0.1
	c-0.6,0-0.6,1,0,1c2.9,0.1,5.9,0.2,8.8,0.2c-2.6,0.3-5.2,0.5-7.8,0.4c-0.6,0-0.6,1,0,1c4.3,0.2,8.7-0.5,13-1.1
	c0.3,0.1,0.7,0.1,1,0.2c1.5,0.3,3.1,0.2,4.6,0.2c6.7,0,13.4,0,20.1,0c3.8,0,7.6,0.1,11.4,0.2c0.6,0,0.6-1,0-1
	C41.8,42.1,35.1,42,28.4,42c-1,0-1.9,0-2.9,0c0,0,0.1,0,0.1-0.1c1.2,0,2.4,0,3.7,0c3.4,0,6.8,0,10.2-0.1c3.8,0,7.6-0.1,11.4-0.1
	C51.5,41.8,51.5,40.8,50.9,40.8z M42.7,39.4c0.2,0,0.4,0,0.6,0c-4.2,0.2-8.3-0.3-12.5-0.5c-4.3-0.3-8.5-0.1-12.8-0.3
	c2-0.1,4.1-0.2,6.1-0.2c6,0.1,12.1,0.7,18.1,0.2C42.2,39,42.3,39.4,42.7,39.4z M20,36.5c0.4-0.1,0.8-0.1,1.1-0.2
	c0.6,0,1.1,0.1,1.7,0.1c-0.3,0-0.5,0.1-0.8,0.1C21.3,36.4,20.7,36.4,20,36.5z M41.4,35c-0.2,0.1-0.4,0.3-0.5,0.4
	c-1.2-0.2-2.4-0.2-3.5-0.3c-0.9-0.1-1.8-0.1-2.7-0.2c0.7,0,1.3,0,2,0C38.2,34.9,39.8,35,41.4,35z M27.4,30.6
	c0.4-0.1,0.7-0.1,1.1-0.2c2.7,0.1,5.4,0.4,8.1,0.7c-2.1,0.1-4.2,0.2-6.3,0.3c-1.6-0.1-3.3-0.2-4.9-0.2C26,30.9,26.7,30.8,27.4,30.6z
	 M23.5,22.2c0.4,0.2,0.9,0.3,1.3,0.5c-0.4,0-0.8,0-1.3,0c-0.6,0-1.1-0.1-1.7-0.1L23.5,22.2z M19,22.4c-0.2-1.3,1.2-2.4,2.2-3
	c0.3,0,0.5,0,0.8,0c0,0.1,0.1,0.2,0.2,0.3c-0.5,0.1-1,0.2-1.5,0.4c-0.5,0.2-0.4,1,0.1,1c0,0,0,0,0,0c0,0,0,0,0,0
	c-0.5,0.2-0.4,0.7-0.1,0.9c-0.5,0.1-1,0.2-1.5,0.3C19.1,22.2,19,22.3,19,22.4z M21.3,28.4c0.4-0.5,1-1.1,1.2-1.7
	c0.2-0.6-0.1-1.1-0.6-1.5c-0.8-0.7-2-1.1-2.6-2c1.2,0.3,2.4,0.4,3.6,0.5c-0.2,0.3-0.1,0.8,0.4,0.8c0.6,0,1.1,0,1.7,0
	c-0.3,0.1-0.7,0.2-1,0.3c-0.2,0.1-0.4,0.2-0.4,0.5c0,0.2,0.2,0.5,0.4,0.5c0.5,0.1,1.1,0.1,1.6,0.2c-0.6,0.1-1.2,0.3-1.7,0.5
	c-0.3,0-0.6,0.1-0.9,0.1c-0.3,0-0.5,0.3-0.5,0.5C22.4,27.5,22.6,28,23,28c0.5,0,1.1,0,1.6,0c0.8,0.2,1.5,0.3,2.3,0.5
	c-2.2,0.3-4.4,0.6-6.7,0.9C20.6,29,21,28.7,21.3,28.4z M18,31.2c0.4-0.3,0.8-0.5,1.2-0.8c0.1,0.1,0.2,0.1,0.3,0.1
	c1.1-0.1,2.3-0.1,3.4-0.2c-1,0.2-2.1,0.4-3.1,0.5c-0.2,0-0.3,0.1-0.3,0.3C19,31.1,18.5,31.2,18,31.2z M25.8,32.6
	c1.7,0.1,3.3,0.2,5,0.2c-2.1,0.2-4.2,0.4-6.2,0.6c-2.3,0-4.5,0-6.8-0.1C20.5,33,23.1,32.8,25.8,32.6z M13.7,35.9
	c1.1,0.1,2.1,0.1,3.2,0.2c-0.4,0.1-0.8,0.2-1.2,0.2c-1.8,0.3-3.7,0.5-5.5,0.5c-0.2-0.1-0.5-0.1-0.7-0.2
	C10.9,36.3,12.3,36.1,13.7,35.9z M11,41.5c-0.7-0.1-1.5-0.1-2.3-0.1c-0.8,0-1.5,0-2.3-0.1c1.1-0.1,2.2-0.2,3.3-0.3
	c1.5-0.1,3,0,4.5,0.2c-0.9,0.1-1.8,0.2-2.7,0.3C11.4,41.6,11.2,41.6,11,41.5z M24.6,42c-2.1,0-4.3,0-6.4,0c-0.8,0-1.5,0-2.3,0.1
	c0.8-0.1,1.6-0.2,2.5-0.2c0.3,0,0.7,0.1,1,0.1c1.6,0,3.1,0,4.7,0C24.3,42,24.5,42,24.6,42z M30.7,40c0,0-0.1,0-0.1,0
	c-8,0.1-16,0.1-24-0.1c2.1-0.2,4.2-0.5,6.4-0.8c3,0.4,6.1,0.5,9.2,0.5c2.6,0,5.2,0,7.8,0.1c1,0,1.9,0.1,2.9,0.2
	C32.1,40,31.4,40,30.7,40z"/>
<path class="st2" d="M38,12.3c-0.1-0.3-0.3-0.4-0.6-0.3c-0.6,0.1-1.2,0.2-1.7,0.4c-0.3,0.1-0.4,0.4-0.3,0.6c0.1,0.3,0.3,0.4,0.6,0.3
	c0.6-0.1,1.2-0.2,1.7-0.4C37.9,12.8,38.1,12.5,38,12.3z"/>
</svg>
