<?xml version="1.0" encoding="utf-8"?>
<!-- Generator: Adobe Illustrator 25.1.0, SVG Export Plug-In . SVG Version: 6.00 Build 0)  -->
<svg version="1.1" id="Layer_1" xmlns="http://www.w3.org/2000/svg" xmlns:xlink="http://www.w3.org/1999/xlink" x="0px" y="0px"
	 viewBox="0 0 48 48" style="enable-background:new 0 0 48 48;" xml:space="preserve">
<style type="text/css">
	.st0{fill:none;}
	.st1{display:none;fill:#E077D6;}
	.st2{fill:#FFEA61;}
</style>
<rect class="st0" width="48" height="48"/>
<path class="st1" d="M20.4,16.1c-0.8-2.5-1.5-5.1-0.9-7.7c0.6-2.5,2.9-4.9,5.8-5c0.5,0,1,0.1,1.4,0.3c0.5,0.2,0.9,0.7,1.2,1.1
	c1.3,1.8,1.5,4.2,1.1,6.3s-1.4,4.2-2.5,6.1c-1.2,2.1-2.5,4.1-4,6.1c3.2-4.2,8.2-7.1,13.5-8.9c1.6-0.5,3.3-0.9,4.9-0.5
	c1.6,0.4,3,2,2.4,3.4c-0.3,0.7-1,1.3-1.7,1.7c-5.7,3.7-12.8,5.4-19.8,4.8c1.6-0.3,3.1,0.5,4.5,1.4c5.2,3.2,10,7.7,11.1,13.4
	c0,0.2,0.1,0.5-0.1,0.7c-0.2,0.2-0.5,0.4-0.8,0.4c-1.4,0.4-2.9,0.9-4.4,0.5c-1.1-0.3-2-1-2.7-1.8c-3.6-4.1-3.4-10-6.1-14.6
	c0.5,1.5,0.5,3.1,0.6,4.6c0.1,3.8,0.2,7.7-0.7,11.4c-0.3,1-0.7,2.2-1.8,2.7c-0.9,0.4-2.1,0.1-2.9-0.5s-1.2-1.6-1.5-2.5
	c-0.5-1.6-0.5-3.3-0.6-5c-0.1-1.4-0.1-2.9,0.4-4.2c0.9-2.4,3.5-3.9,5-6c-2.4,1.4-5.3,1.8-8.1,2c-1.4,0.1-2.9,0.1-4.3-0.3
	s-2.7-1.3-3.2-2.5s0-2.8,1.2-3.4c0.5-0.2,1.1-0.3,1.6-0.4c2.6-0.3,5.4,0,7.9,0.7c0.6,0.2,1.3,0.4,1.9,0.7c0.5,0.2,1,0.5,1.6,0.7
	c0.3,0.1,0.8,0.2,1.2,0c0.4-0.3,0.2-0.9,0.1-1.2C21.4,19,20.9,17.6,20.4,16.1z"/>
<g>
	<path class="st2" d="M3,26.2c2.8,3,6.5,5.3,10.5,5.7c2,0.2,4-0.1,5.8-1s3.3-2.3,4.8-3.6c3.1-2.7,6.3-5.4,10.1-7.2
		c1.9-0.9,3.9-1.6,6-1.9s4.2-0.3,6.2,0.3c0,0,0.1,0,0,0.1c0,0,0,0-0.1,0c-4.1-0.5-8.1,0.7-11.7,2.5s-6.9,4.3-10,6.9
		c-1.6,1.3-3.2,2.7-5.1,3.6c-1.9,0.9-4.1,1.2-6.2,0.9C9.2,31.9,5.6,29.3,3,26.2C2.9,26.2,2.9,26.2,3,26.2L3,26.2z"/>
</g>
<g>
	<path class="st2" d="M2.1,18c2,3.9,5,7.2,8.7,9.3c1.9,1,4,1.7,6,1.3c2.1-0.4,4-1.5,5.6-2.7c1.7-1.3,3.2-2.8,4.9-4.3
		c1.6-1.5,3.4-2.8,5.4-3.9c3.9-2.1,8.5-3.2,12.8-2.6c0,0,0.1,0,0.1,0.1c0,0,0,0.1-0.1,0.1c-4.3,0.1-8.6,1.3-12.2,3.5
		c-1.8,1.1-3.5,2.4-5.2,3.8s-3.3,2.9-5.1,4.2c-1.8,1.3-3.8,2.4-6.1,2.7c-0.6,0.1-1.1,0.1-1.7,0.1c-0.6,0-1.1-0.2-1.7-0.3
		c-1.1-0.3-2.1-0.8-3.1-1.3C6.7,25.5,3.8,22,2.1,18C2,18,2,18,2.1,18C2,17.9,2.1,17.9,2.1,18z"/>
</g>
<g>
	<path class="st2" d="M8.1,21.7c1,1.2,2.3,2.3,3.7,3s3,1,4.6,0.9c1.6-0.2,3-0.8,4.3-1.8c1.2-1,2.3-2.2,3.3-3.5
		c2.1-2.5,4.6-4.9,7.6-6.3c3-1.5,6.4-2.3,9.7-1.8c0,0,0.1,0,0.1,0.1c0,0,0,0-0.1,0.1c-3.3,0.2-6.4,1.1-9.1,2.7
		c-2.8,1.5-5.3,3.5-7.5,5.9c-1.1,1.2-2.2,2.4-3.6,3.4s-3,1.7-4.7,1.8c-1.7,0.1-3.4-0.3-4.8-1.1C10.2,24.3,9,23.1,8.1,21.7
		C8,21.8,8,21.7,8.1,21.7L8.1,21.7z"/>
</g>
<g>
	<path class="st2" d="M16.2,34.1c2.7,0.4,5.3-0.8,7.4-2.2c2.2-1.5,4.1-3.4,6.1-5.1c2-1.8,4.1-3.6,6.6-4.7c2.5-1.1,5.2-1.8,7.9-1.7
		c0,0,0.1,0,0.1,0.1v0.1c-2.6,0.6-5.1,1.5-7.4,2.7c-2.3,1.2-4.5,2.7-6.6,4.4c-2.1,1.7-4.1,3.5-6.4,4.9c-2.3,1.4-5.1,2.4-7.8,1.8
		C16.1,34.2,16.1,34.2,16.2,34.1C16.1,34.1,16.1,34.1,16.2,34.1z"/>
</g>
<g>
	<path class="st2" d="M14.7,12.6c-0.1-0.3-0.3-0.5-0.6-0.5s-0.5,0.2-0.7,0.4l0,0c-0.3,0.7-0.3,1.6-0.3,2.4c0.1,0.8,0.2,1.6,0.3,2.4
		c0.2,0.8,0.4,1.5,0.8,2.3c0.4,0.7,0.8,1.4,1.4,1.9s1.3,0.8,1.9,0.6c0.7-0.2,1.3-0.6,1.8-1.2c0.5-0.5,0.9-1.2,1.3-1.9l1.2-2.1
		c1.6-2.9,3.7-5.6,6.4-7.6s6-3.4,9.3-3.3c0,0,0.1,0,0.1,0.1c0,0,0,0.1-0.1,0.1c-3,0.3-5.9,1.8-8.3,3.8s-4.6,4.5-6.3,7.2
		c-0.9,1.4-1.6,2.9-2.8,4.1c-0.6,0.6-1.3,1.2-2.3,1.4c-1,0.2-1.9-0.3-2.5-0.9s-1.1-1.4-1.4-2.1c-0.3-0.8-0.6-1.6-0.7-2.4
		c-0.1-0.8-0.2-1.6-0.2-2.5c0-0.8,0-1.7,0.4-2.5l0,0l0,0c0.2-0.3,0.5-0.5,0.8-0.5c0.4,0,0.6,0.3,0.7,0.6
		C14.9,12.6,14.8,12.6,14.7,12.6C14.8,12.6,14.8,12.6,14.7,12.6z"/>
</g>
<g>
	<path class="st2" d="M21.9,40.3c1.3,0.1,2.5-0.7,3.5-1.5s2-1.7,3.1-2.5l1.6-1.2c0.6-0.4,1.1-0.8,1.7-1.1c1.2-0.7,2.4-1.4,3.9-1.6
		h-0.1c0.6-0.1,1.2-0.2,1.8,0c0.6,0.1,1.2,0.5,1.6,1l0,0l0,0c0.5,0.7,0.7,1.5,0.8,2.2s0.1,1.6-0.2,2.3c-0.3,0.8-0.9,1.4-1.8,1.5
		c-0.5,0.1-0.9-0.2-1.1-0.5c-0.2-0.3-0.4-0.7-0.3-1.1c0,0,0-0.1,0.1-0.1c0,0,0,0,0.1,0.1c0.1,0.6,0.8,1.2,1.2,1
		c0.5-0.2,0.9-0.7,1-1.2c0.2-0.6,0.1-1.2,0-1.8s-0.3-1.2-0.6-1.7l0,0c-0.3-0.3-0.6-0.5-1-0.6s-0.9-0.1-1.3-0.1l0,0l0,0
		c-1.2,0.1-2.4,0.6-3.6,1.2c-0.6,0.3-1.1,0.7-1.7,1L29,36.8L27.3,38c-0.5,0.4-1.1,0.8-1.6,1.2c-1.1,0.8-2.4,1.5-3.8,1.3
		C21.9,40.4,21.9,40.4,21.9,40.3L21.9,40.3z"/>
</g>
<g>
	<path class="st2" d="M13.9,37.5c2.8,0.1,5.6-0.5,8.2-1.6c2.6-1,5-2.5,7.2-4.2s4.2-3.7,6.5-5.4c2.3-1.6,5.2-2.9,8.1-2.7
		c0,0,0.1,0,0.1,0.1v0.1c-1.4,0.3-2.7,0.7-3.9,1.3c-1.2,0.6-2.4,1.4-3.4,2.2c-2.2,1.7-4.3,3.6-6.7,5.2c-2.3,1.6-4.9,3-7.6,4
		S16.8,37.9,13.9,37.5C13.9,37.6,13.9,37.6,13.9,37.5L13.9,37.5z"/>
</g>
</svg>
